<svg width="275" height="292" viewBox="0 0 275 292" fill="none" xmlns="http://www.w3.org/2000/svg">
<path d="M162.566 89.8496C162.566 89.8496 169.538 92.2732 178.687 105.997C187.836 119.721 193.325 124.206 198.124 129.795C202.923 135.384 211.614 152.739 213.33 156.382C215.046 160.024 223.733 172.891 224.88 175.684C228.32 183.543 229.965 192.153 229.682 200.814C229.11 213.439 227.619 248.41 228.307 253.624C228.994 258.837 229.544 269.52 230.471 273.899C230.775 275.324 234.484 283.608 217.448 282.513C200.412 281.418 197.353 283.206 181.178 281.993C168.175 281.016 153.304 285.428 146.216 283.599C146.216 283.599 141.644 277.286 136.155 274.493C131.854 272.033 128.468 268.095 126.551 263.324C125.132 259.71 123.45 256.22 121.52 252.883C120.377 251.423 115.346 237.223 114.776 234.309C114.776 234.309 112.482 115.568 132.671 105.537C152.86 95.5071 162.566 89.8496 162.566 89.8496Z" fill="#FFCEB6"/>
<path d="M136.907 121.334C137.275 122.442 138.025 124.459 137.002 124.897C135.777 125.422 133.434 126.233 133.052 126.334C131.743 126.683 131.827 126.61 133.602 131.992C133.937 133.014 133.525 133.408 130.778 134.425C127.599 135.604 127.406 135.239 126.906 134.263C126.211 132.688 125.649 131.051 125.225 129.371C124.868 128.486 124.768 128.666 120.149 130.247C119.566 130.445 119.049 130.459 118.132 127.813C117.812 127.063 117.618 126.26 117.558 125.439C117.501 124.603 118.59 124.4 122.581 122.902C123.113 122.702 123.442 122.499 123.269 122.013C122.58 120.389 122.014 118.711 121.575 116.993C121.285 115.33 123.655 114.745 124.068 114.588C127.568 113.261 127.2 113.873 129.018 119.406C129.524 120.944 130.631 120.109 133.44 119.218C135.449 118.579 135.776 117.92 136.907 121.334Z" fill="white"/>
<path d="M114.311 222.706C114.619 222.62 114.499 223.05 114.257 223.479C113.748 224.702 112.013 224.611 111.041 223.771C111.02 223.756 111.003 223.735 110.992 223.71C110.982 223.684 110.978 223.657 110.982 223.63C110.986 223.603 110.997 223.577 111.013 223.556C111.03 223.535 111.052 223.52 111.077 223.512C112.14 223.18 113.22 222.911 114.311 222.706Z" fill="white"/>
<path d="M118.498 219.213C118.683 220.197 118.773 220.327 117.989 220.463C117.174 220.755 107.839 223.407 107.093 223.557C106.433 223.69 106.424 223.296 106.347 223.065C105.531 220.599 105.736 221.325 108.684 220.158C108.852 220.092 108.932 219.543 108.822 219.413C108.729 219.3 108.611 219.213 108.479 219.158C108.346 219.104 108.204 219.085 108.063 219.102C107.689 219.222 107.602 219.267 107.337 218.505C106.902 217.331 106.554 216.121 106.297 214.889C106.187 214.351 106.246 213.789 106.466 213.29C106.685 212.791 107.053 212.383 107.513 212.128C108.493 211.297 107.188 209.861 108.75 209.354C110.182 208.888 109.835 210.761 110.729 210.684C113.204 210.468 113.537 212.436 114.341 214.571C115.092 216.561 115.513 217.077 114.82 217.256C113.343 217.635 113.453 217.953 113.623 218.232C113.985 218.816 114.287 218.419 115.785 218.086C116.309 217.966 116.827 217.815 117.336 217.637C118.005 217.406 118.103 217.127 118.498 219.213Z" fill="white"/>
<path d="M90.3777 142.271C90.5059 143 90.3787 143.753 90.0201 144.39C89.6616 145.026 89.0963 145.501 88.4308 145.725C87.7654 145.949 87.0456 145.908 86.4071 145.608C85.7687 145.308 85.2555 144.77 84.9643 144.096C84.2409 142.773 83.745 141.323 83.4999 139.816C83.3965 139.013 83.5896 138.198 84.0389 137.543C84.4882 136.887 85.1588 136.442 85.9103 136.3C88.0168 135.91 88.8336 136.802 89.5321 138.556C90.0243 139.729 90.3108 140.988 90.3777 142.271Z" fill="white"/>
<path d="M99.4716 157.542C99.8841 158.592 99.7191 158.239 89.5289 161.699C87.6699 162.329 86.5892 163.584 86.1918 161.762C84.2132 152.71 82.8093 151.25 93.0228 149.01C96.5731 148.233 96.9044 151.057 99.4716 157.542Z" fill="white"/>
<path d="M148.912 68.1186C151.157 79.1435 149.638 90.6567 144.626 100.602C142.173 101.004 139.696 101.215 137.214 101.231C133.122 101.458 128.82 101.7 128.16 101.735C126.494 101.824 125.452 99.4487 125.903 99.0794C127.013 98.1727 126.519 96.101 127.475 95.6556C128.628 95.1184 129.059 94.5242 129.163 93.9489C129.238 93.5248 129.204 93.0871 129.064 92.6818C128.925 92.2765 128.686 91.9184 128.371 91.645C128.224 91.4713 128.213 91.2903 128.417 91.207C128.728 91.0916 129.001 90.885 129.206 90.611C129.411 90.3371 129.538 90.0071 129.573 89.6594C129.757 88.6942 129.583 87.6909 129.087 86.8586C128.592 86.0262 127.812 85.4292 126.912 85.1918C126.105 85.0093 126.637 84.1888 126.193 82.8558C126.046 82.4178 125.614 81.6148 125.514 81.209C125.352 80.5476 125.576 79.8862 125.458 79.2131C125.271 78.1503 124.77 77.7531 125.789 77.4611C127.092 77.21 128.283 76.5145 129.18 75.4801C130.078 74.4458 130.633 73.1289 130.762 71.7292C131.201 69.501 130.932 67.1812 129.997 65.1329C129.516 64.1838 128.796 63.3953 127.917 62.8553C127.483 62.5502 127.622 62.3531 127.824 62.0684C128.106 61.705 128.302 61.2749 128.395 60.8143C128.488 60.3538 128.475 59.8763 128.357 59.4221C128.24 58.9679 128.021 58.5504 127.72 58.2047C127.419 57.859 127.044 57.5953 126.626 57.4358C125.73 57.0883 126.932 56.3291 127.17 54.5859C127.243 54.0671 127.218 53.538 127.097 53.0296C126.975 52.5212 126.759 52.0437 126.461 51.625C126.025 51.083 125.467 50.6671 124.839 50.4161C124.508 50.2234 124.604 49.9781 124.938 49.4335C126.504 46.8464 124.873 43.6753 121.65 42.754C121.28 42.6489 121.579 41.513 121.426 40.7611C121.209 39.6895 120.664 38.3215 118.239 37.6528C116.222 37.0965 115.489 39.2953 114.916 37.8586C114.7 37.4236 114.384 37.0536 113.997 36.7828C113.611 36.512 113.166 36.3492 112.705 36.3096C111.706 35.9371 110.614 35.9639 109.632 36.3851C108.651 36.8062 107.848 37.5928 107.374 38.5974C106.659 39.7552 106.788 37.0483 104.035 36.8965C98.4155 36.5899 99.4798 40.9611 98.1584 39.6252C96.3351 37.7842 93.2909 39.1245 92.492 41.1144C91.5295 43.5264 92.0053 42.8226 90.2274 42.6051C87.9683 42.3277 84.5899 44.9221 85.2458 47.2771C85.7105 48.9517 83.5848 48.3268 81.2775 49.8306C80.3292 50.3414 79.5315 51.1193 78.9715 52.0791C78.4116 53.039 78.1109 54.1438 78.1026 55.2729C78.0942 56.4019 78.3784 57.5116 78.924 58.4807C79.4697 59.4498 80.2558 60.2409 81.1964 60.7675C81.8275 61.0507 82.2661 61.2508 82.0668 61.7895C80.5666 65.8775 84.6793 65.4745 83.9698 67.1711C83.6054 68.0563 83.5825 69.0579 83.9059 69.9609C84.2293 70.8639 84.8733 71.5962 85.6995 72.0007C85.7958 72.0475 86.112 72.0956 85.837 72.4387C84.8443 73.7133 85.6404 75.2259 85.2128 75.6055C81.8894 78.5561 84.5253 84.0954 87.6878 87.3074C88.5098 88.146 89.5772 88.6611 90.7128 88.7674C91.8158 88.9129 92.9329 88.6593 93.8835 88.0476C94.1915 88.1089 94.4184 88.4987 94.6631 88.9995C94.9863 89.6594 95.6174 90.1515 95.9446 90.8085C96.6321 92.1838 95.8333 94.403 96.0024 96.2207C96.0234 96.6117 96.1234 96.9934 96.2955 97.3399C96.4677 97.6863 96.7079 97.9894 97 98.2287C97.2921 98.4679 97.6292 98.6377 97.9885 98.7266C98.3477 98.8154 98.7208 98.8212 99.0824 98.7436C99.4949 98.6983 99.7135 98.7436 99.752 99.2575C99.7674 99.7147 99.8736 100.163 100.064 100.574C100.254 100.985 100.523 101.348 100.854 101.641C101.186 101.934 101.571 102.149 101.986 102.272C102.401 102.395 102.836 102.424 103.262 102.357C103.856 102.293 104.079 102.545 104.188 103.131C105.688 111.235 106.969 104.902 92.5126 117.731C92.3989 117.878 92.2396 117.977 92.0632 118.011C91.8869 118.044 91.705 118.01 91.5501 117.915C89.3059 116.895 87.1204 115.734 85.0051 114.44C79.4993 110.512 74.9223 105.286 71.6309 99.1713C68.3396 93.0561 66.4228 86.2164 66.0301 79.1854C65.4224 61.3865 75.2811 43.8811 90.1573 36.4658C114.796 24.1887 143.103 38.6879 148.912 68.1186Z" fill="white"/>
<path d="M115.888 82.9353C115.63 85.4472 115.021 87.9042 114.08 90.2251C113.614 91.1536 112.445 93.3232 109.405 90.6631C107.976 89.4138 106.612 88.0833 105.32 86.6773C107.318 86.2718 109.293 85.7502 111.238 85.1151C112.881 84.6368 114.448 83.9022 115.888 82.9353Z" fill="white"/>
<path d="M74.9227 33.3226C75.0129 33.4819 75.0678 33.6609 75.0832 33.8461C75.0987 34.0313 75.0743 34.2177 75.0119 34.3914C74.9496 34.5651 74.8508 34.7215 74.7231 34.8487C74.5955 34.9759 74.4423 35.0706 74.2751 35.1257C74.01 35.2231 73.7196 35.206 73.4663 35.0782C73.213 34.9504 73.017 34.7221 72.9207 34.4424C71.1414 29.3937 71.0273 29.0156 72.2813 28.5382C73.4061 28.1104 73.3676 28.7148 74.9227 33.3226Z" fill="#D4F2E2"/>
<path d="M65.0059 36.9643C65.1035 37.2841 65.296 37.4505 65.2107 37.6812C65.0501 37.9939 64.7941 38.2394 64.4848 38.3773C64.1755 38.5153 63.8312 38.5375 63.5085 38.4404C63.2487 38.2591 63.0593 37.9843 62.975 37.6666C62.4307 36.2646 61.9345 34.8421 61.4872 33.4019C61.2603 32.6719 61.2411 32.3128 62.4841 31.9259C63.2019 31.704 63.3009 32.012 63.5841 32.6749C63.8247 33.2457 64.2194 34.4137 65.0059 36.9643Z" fill="#D4F2E2"/>
<path d="M59.0109 38.5815C59.0907 38.8458 59.6118 39.8138 58.927 40.2664C57.4984 41.0416 57.0309 40.7394 55.7989 35.5009C55.6257 34.7709 55.6435 34.3213 56.991 33.9752C57.7047 33.7913 57.5933 33.8891 59.0109 38.5815Z" fill="#D4F2E2"/>
<path d="M164.557 216.225C175.742 213.117 174.418 212.007 173.162 218.269C173.14 218.38 108.675 236.081 104.638 237.039C100.601 237.997 98.4049 237.915 96.2351 237.293C94.4008 236.763 93.25 235.859 92.0372 233.147C87.5506 223.112 50.0667 79.8846 45.1195 47.9077C44.2752 42.4852 45.3752 39.4995 47.7884 36.4131C48.5377 47.8478 68.2979 131.79 75.9635 158.409C93.976 220.957 92.0634 235.169 105.69 232.037C119.35 228.902 123.541 227.613 164.557 216.225Z" fill="#A6CCF4"/>
<path d="M91.8211 210.87C70.7974 132.548 67.5785 120.436 67.5785 120.284C67.6624 120.468 69.5461 127.341 66.3644 115.338C65.9313 113.704 63.3105 105.702 62.7894 101.256C62.0318 94.8322 47.7125 41.4196 49.9194 34.8408C51.3865 30.4608 51.8829 29.6418 109.19 14.3819C115.217 12.7759 129.482 9.04118 135.766 8.77838C140.392 8.58566 142.466 11.9495 143.829 16.7208C148.328 32.4815 151.209 41.5043 157.64 71.754C163.269 98.2253 169.22 118.662 167.794 116.576C165.583 113.339 169.271 116.544 160.781 106.836C159.897 105.823 158.008 102.361 153.263 103.662C150.561 104.521 148.138 106.164 146.268 108.406C144.397 110.648 143.153 113.399 142.675 116.351C141.646 124.911 150.668 139.761 156.263 146.484C165.367 157.425 164.418 151.886 170.563 168.105C173.829 176.735 174.651 177.205 180.889 189.233C181.867 191.118 180.635 192.419 178.739 198.047C177.734 201.03 175.913 207.35 174.626 211.285C174.388 212.015 173.228 211.937 160.302 215.519C128.664 224.296 146.345 220.014 117.539 227.535C98.3125 232.56 98.12 234.335 91.8211 210.87ZM173.694 187.385C175.26 186.938 175.131 187.011 174.982 185.891C174.845 184.859 171.647 186.528 148.759 192.836C103.128 205.411 95.9324 207.124 94.534 208.02C94.1641 208.258 94.4419 209.013 94.8846 209.032C96.1991 209.092 166.108 189.553 173.694 187.385ZM169.157 170.049C169.317 169.851 170.199 168.14 168.864 168.059C166.541 167.913 165.043 172.986 164.306 170.381C163.933 169.067 162.086 168.748 160.403 170.432C157.206 173.634 157.039 174.185 156.065 173.434C151.581 169.978 149.168 177.578 147.874 176.324C147.456 175.929 146.941 175.668 146.388 175.572C145.836 175.476 145.269 175.549 144.755 175.782C139.942 177.902 139.942 179.666 139.839 180.677C139.806 180.926 139.863 181.179 139.998 181.386C140.132 181.592 140.335 181.738 140.566 181.793C140.797 181.848 141.039 181.809 141.244 181.683C141.449 181.558 141.602 181.355 141.673 181.115C141.922 180.372 142.327 179.698 142.857 179.145C143.388 178.592 144.029 178.174 144.734 177.922C145.361 177.617 146.337 177.27 146.861 178.187C147.756 179.755 148.468 179.658 149.443 178.603C152.481 175.307 153.376 174.347 154.561 175.055C155.464 175.594 156.553 177.627 158.383 175.54C160.904 172.665 162.616 170.682 163.215 172.757C163.574 174.001 164.581 174.947 165.484 174.03C166.756 172.748 168.014 171.447 169.162 170.049H169.157ZM159.985 159.464C160.724 159.374 161.261 159.026 161.15 158.082C161.384 155.64 157.394 157.441 155.748 160.272C154.997 161.563 155.144 159.204 153.208 158.831C151.128 158.433 150.289 160.41 148.412 162.02C147.836 162.515 146.945 161.017 146.189 160.332C145.409 159.627 144.169 160.211 143.532 160.792C142.088 162.106 141.705 162.805 140.903 163.369C140.43 163.7 140.022 162.994 139.49 162.848C135.502 161.753 134.815 167.093 133.698 165.476C130.868 161.379 125.238 170.419 127.236 171.316C128.553 171.913 128.593 169.336 130.511 167.353C131.45 166.382 131.781 166.588 132.429 167.762C133.147 169.06 133.598 169.577 135.274 167.844C136.364 166.718 138.06 163.879 139.204 165.544C140.686 167.702 141.855 165.544 143.824 163.335C145.27 161.709 146.168 163.419 146.626 164.433C147.238 165.79 148.413 165.66 149.19 164.606C149.949 163.548 150.822 162.589 151.793 161.75C152.768 160.921 153.07 161.107 153.625 162.273C153.737 162.603 153.934 162.893 154.195 163.11C154.455 163.327 154.768 163.461 155.097 163.497C155.426 163.533 155.758 163.47 156.055 163.314C156.352 163.159 156.601 162.918 156.775 162.619C158.174 160.842 158.631 159.626 159.991 159.464H159.985ZM149.159 93.1795C151.457 85.8332 152.01 77.9979 150.769 70.3699C143.634 26.7159 96.2789 19.7371 75.5686 46.0697C55.7233 71.3014 66.4936 99.259 77.6449 110.33C83.7361 116.38 85.3064 116.433 91.3289 119.516C95.2699 121.369 99.5186 122.371 103.828 122.464C113.271 123.102 112.611 121.607 112.518 124.146C111.981 138.672 130.002 147.192 140.132 132.782C141.511 130.852 142.248 128.489 142.226 126.066C142.28 124.892 142.245 123.715 142.121 122.547C141.492 119.096 140.011 115.884 137.83 113.238C137.405 112.776 137.206 112.711 138.38 111.462C143.418 106.472 147.136 100.167 149.164 93.1751L149.159 93.1795ZM140.972 17.3281C140.793 16.3932 140.554 15.4726 140.254 14.5731C140.096 14.0826 139.498 14.3337 139.116 14.4125C137.224 14.7332 135.355 15.1922 133.522 15.7864C132.796 16.0565 132.638 16.0871 133.038 17.4741C133.6 19.4247 133.382 20.0408 134.34 19.8101C141.467 18.1019 141.189 18.4932 140.977 17.3238L140.972 17.3281ZM129.715 184.834C131.842 181.987 133.965 181.34 133.683 179.055C133.616 178.514 132.791 178.441 132.213 178.798C128.828 180.893 128.146 183.897 127.255 182.365C126.305 180.73 124.549 180.812 123.08 181.889C122.213 182.526 121.018 183.349 120.212 184.059C119.112 185.021 116.805 181.577 114.212 183.276C111.187 185.251 110.979 186.86 110.231 186.43C105.475 183.691 103.1 188.069 101.509 189.934C100.326 191.319 101.428 189.204 98.3978 189.204C98.2978 189.185 98.195 189.194 98.0994 189.23C94.6619 190.491 93.6774 195.271 95.5116 195.416C96.8 195.518 96.0094 193.298 97.8491 192C98.7319 191.376 98.7594 191.388 99.2503 192.405C101.017 196.072 102.666 191.188 105.038 188.95C105.323 188.601 105.673 188.317 106.065 188.116C106.457 187.914 106.883 187.8 107.318 187.778C107.753 187.757 108.188 187.83 108.596 187.992C109.003 188.154 109.376 188.402 109.691 188.722C111.744 190.967 111.678 188.706 115.2 185.869C116.414 184.892 117.16 185.139 117.968 186.555C118.092 186.806 118.274 187.02 118.496 187.176C118.719 187.333 118.975 187.428 119.24 187.452C119.506 187.476 119.774 187.428 120.018 187.314C120.262 187.199 120.475 187.021 120.637 186.796C124.583 182.727 124.674 183.292 125.968 184.914C126.184 185.231 126.469 185.488 126.798 185.662C127.128 185.837 127.493 185.924 127.861 185.916C128.229 185.908 128.59 185.805 128.913 185.617C129.236 185.429 129.511 185.16 129.715 184.834ZM130.548 20.8C131.175 20.654 131.773 20.4044 131.776 19.9561C131.312 18.3793 129.969 12.5101 129.499 12.478C129.197 12.4782 128.899 12.5483 128.625 12.6834C128.351 12.8185 128.109 13.0153 127.914 13.2602C127.719 13.5051 127.577 13.7922 127.497 14.1014C127.418 14.4106 127.402 14.7345 127.453 15.0505C127.993 16.7237 128.407 18.4421 128.86 20.143C129.146 21.2103 129.185 21.111 130.548 20.7942V20.8ZM126.511 21.9549C127.859 21.6176 127.858 21.5286 126.126 16.1295C125.697 14.795 123.622 16.2755 123.622 17.5486C123.699 18.3764 124.292 19.6963 124.692 21.365C124.964 22.498 125.63 22.171 126.511 21.949V21.9549ZM123.211 22.4761C123.189 21.19 122.873 19.9288 122.29 18.8013C121.891 17.7793 120.427 18.2421 120.214 19.7094C120.112 20.4029 120.249 20.8424 121.018 22.8601C121.125 23.1419 121.253 23.3419 121.439 23.2981C122.07 23.1419 123.101 23.1594 123.21 22.4703L123.211 22.4761ZM116.175 222.23C119.338 221.284 120.009 221.665 119.82 220.124C119.545 217.826 119.215 216.92 118.753 216.563C118.502 216.435 118.228 216.368 117.95 216.368C117.671 216.368 117.397 216.435 117.146 216.563C116.647 216.709 116.546 216.833 114.986 212.298C113.759 208.736 111.528 209.839 111.152 209.086C110.227 207.241 108.754 207.557 107.546 208.245C105.896 209.187 107.184 210.623 106.161 211.479C105.585 211.913 105.156 212.533 104.938 213.247C104.72 213.961 104.726 214.731 104.954 215.441C105.755 218.935 106.915 219.604 105.424 219.947C104.8 220.093 104.418 220.531 104.556 221.188C105.54 225.803 105.556 225.352 109.028 224.428C109.454 224.314 109.428 224.204 109.9 224.401C110.372 224.846 110.938 225.163 111.551 225.326C112.163 225.489 112.803 225.493 113.417 225.337C115.995 224.709 115.389 222.464 116.175 222.23ZM118.65 172.075C118.778 171.615 118.115 171.155 117.275 171.003C115.405 170.662 114.268 170.616 112.973 172.231C112.122 173.291 111.933 173.068 110.806 172.259C108.782 170.808 107.102 172.551 105.52 174.531C104.776 175.464 103.822 172.725 101.784 174.021C100.527 175.102 99.4235 176.372 98.5091 177.789C97.5136 179.144 96.9966 176.03 94.3415 177.321C92.6558 178.138 90.354 182.905 92.3478 183.105C94.248 183.295 93.6609 177.068 96.5016 180.039C98.6728 182.305 100.008 179.663 101.927 177.151C104.008 174.433 104.402 179.664 106.542 176.959C109.282 173.484 108.959 173.579 110.179 174.668C111.957 176.256 112.771 175.887 113.678 174.626C115.413 172.211 115.627 173.049 116.841 173.357C118.088 173.665 118.646 173.088 118.663 172.075H118.65ZM94.4666 161.563C100.467 159.589 101.839 159.602 101.247 157.92C98.9629 151.441 98.1956 147.275 93.5578 147.294C90.9796 147.593 88.4618 148.322 86.097 149.452C83.1999 151.277 82.9703 153.638 83.688 157.109C85.844 167.504 85.6501 164.46 94.4721 161.557L94.4666 161.563ZM90.8875 145.706C92.1649 144.082 92.4261 141.149 90.5383 137.19C89.6239 135.27 87.7415 134.233 84.7976 135.207C81.0508 136.445 81.8318 141.976 83.9369 145.242C84.4482 146.144 85.248 146.821 86.1905 147.15C87.0225 147.396 87.9025 147.391 88.732 147.136C89.5615 146.881 90.3078 146.386 90.8875 145.706ZM89.5881 23.7288C89.6651 23.0221 89.8631 22.1228 89.0794 22.0293C88.605 21.968 88.2819 22.5009 88.0963 22.7812C87.5531 23.6018 83.8915 29.1936 83.7375 29.5235C83.545 29.9323 83.8214 30.8244 84.5763 30.4565C85.6983 29.909 86.5013 29.1089 86.8216 29.5016C86.9206 29.6243 87.3854 31.2113 87.5435 31.6916C87.648 32.0055 87.8185 32.2114 88.1513 32.0946C88.935 31.8157 88.7961 31.0273 89.5923 23.7288H89.5881ZM81.708 33.4392C82.3859 32.572 81.8331 30.6463 81.2873 29.3133C80.7029 27.8898 80.4994 23.5799 76.8281 25.4268C76.2933 25.6969 75.7501 25.8049 75.7075 26.9408C75.9619 28.7556 76.054 29.1483 76.6618 28.9366C77.2695 28.7249 77.165 28.4037 77.1334 28.0037C77.0963 27.5306 76.8336 27.0123 77.187 26.8035C77.8883 26.3904 78.4795 26.2414 78.7889 26.5699C79.1504 27.2607 79.4497 27.9861 79.6826 28.7366C79.7308 28.8563 79.1189 28.9658 78.6459 29.2257C78.2471 29.4418 77.7673 29.3483 78.0271 30.1426C78.2774 30.9091 78.8013 30.6492 79.0763 30.5645C80.1666 30.2243 80.1419 30.1893 80.4746 31.3631C80.7661 32.3953 80.762 32.7443 79.5121 33.2611C79.123 33.4203 78.8398 33.4641 78.5854 32.9312C78.4658 32.68 78.2031 32.1763 77.605 32.5121C77.0069 32.8479 77.253 33.1852 77.33 33.4392C78.1399 36.2059 81.246 34.0349 81.7121 33.4392H81.708ZM73.975 36.5359C75.9646 35.822 76.3785 35.8847 76.2933 34.0802C76.2204 32.5282 75.0448 27.5949 73.6134 26.9189C73.0381 26.7624 72.4351 26.7605 71.859 26.9134C71.2828 27.0664 70.7516 27.3693 70.3134 27.7949C70.1601 27.9744 70.0541 28.1935 70.0058 28.4303C69.9575 28.6671 69.9688 28.9132 70.0384 29.1439C71.5 35.2219 71.9895 37.2469 73.975 36.5359ZM69.9724 34.5999C70.0466 33.702 68.0859 33.3721 68.0859 34.8627C68.0859 36.3257 69.9504 36.1957 69.9724 34.5999ZM68.761 31.585C68.7448 31.4071 68.6807 31.2378 68.5764 31.0974C68.4721 30.957 68.332 30.8514 68.1728 30.7931C68.0136 30.7348 67.8419 30.7264 67.6783 30.7688C67.5147 30.8111 67.366 30.9025 67.2499 31.0321C67.1339 31.1616 67.0553 31.3238 67.0236 31.4995C66.9919 31.6751 67.0084 31.8567 67.0711 32.0226C67.1338 32.1886 67.2401 32.3319 67.3774 32.4355C67.5146 32.5391 67.677 32.5986 67.8453 32.607C67.9712 32.6136 68.097 32.5912 68.214 32.5414C68.3311 32.4917 68.4367 32.4157 68.5236 32.3187C68.6105 32.2217 68.6767 32.106 68.7177 31.9794C68.7586 31.8528 68.7734 31.7183 68.761 31.585ZM63.0218 39.7975C64.3019 40.329 66.5885 39.2457 66.4483 37.5068C66.1608 35.5077 65.5852 33.5676 64.7419 31.7544C64.5833 31.2548 64.2709 30.8264 63.855 30.5382C63.1812 30.3553 62.4707 30.3971 61.82 30.6579C61.4823 30.7194 61.1604 30.8551 60.8748 31.0562C60.5893 31.2573 60.3464 31.5195 60.1618 31.8259C59.7493 32.683 60.2443 34.3882 61.6949 38.1434C61.7998 38.4997 61.9714 38.8299 62.1994 39.1141C62.4274 39.3984 62.7071 39.6308 63.0218 39.7975ZM60.06 41.1042C60.8479 40.4925 60.7076 39.6165 60.4904 38.8106C59.1085 33.6874 58.8528 32.461 57.1794 32.4202C55.825 32.607 54.1764 33.4611 54.538 35.2891C55.4235 39.7683 56.2375 44.068 60.06 41.1042Z" fill="#D8E9FF"/>
<path d="M134.439 102.537C144.359 101.96 142.85 102.026 143.652 102.194C142.368 104.127 144.404 101.475 136.538 111.126C135.699 112.148 135.482 109.933 131.207 108.898C130.978 108.816 130.758 108.711 130.548 108.584C130.683 108.383 130.831 108.192 130.991 108.013C133.363 105.731 133.976 102.563 134.439 102.537Z" fill="#FFF59E"/>
<path d="M113.175 117.237C113.863 117.227 113.908 117.129 112.805 120.449C112.103 122.562 91.8776 119.865 93.7779 118.323C99.9943 113.291 99.8086 113.159 100.26 113.44C104.189 115.855 108.635 117.162 113.175 117.237Z" fill="#FFF59E"/>
<path d="M113.937 40.2742C113.999 41.1999 113.753 41.4145 114.415 41.6758C114.828 41.8364 115.276 41.5678 115.47 40.9619C115.693 40.438 116.075 40.0084 116.555 39.7412C117.034 39.4741 117.584 39.3847 118.117 39.4873C118.516 39.5239 118.9 39.6665 119.234 39.9019C119.568 40.1374 119.84 40.4582 120.027 40.8349C120.279 41.5821 120.29 42.3969 120.06 43.1519C120.032 43.2634 120.029 43.3802 120.051 43.4933C120.072 43.6063 120.118 43.7125 120.185 43.8038C120.251 43.8951 120.336 43.9689 120.434 44.0197C120.531 44.0704 120.639 44.0967 120.747 44.0965C121.368 44.0466 121.987 44.2129 122.51 44.5701C123.034 44.9274 123.434 45.4562 123.649 46.0763C123.902 46.5893 124.015 47.1674 123.975 47.7452C123.935 48.3229 123.743 48.8772 123.422 49.3452C122.709 50.4227 122.271 50.7118 122.489 51.1089C122.668 51.4359 123.302 51.5002 123.682 51.5848C124.09 51.635 124.48 51.7918 124.817 52.0414C125.154 52.291 125.427 52.6254 125.613 53.0148C125.798 53.4042 125.889 53.8363 125.879 54.2724C125.868 54.7085 125.756 55.135 125.552 55.5137C124.904 57.1197 124.079 58.0789 125.908 58.8352C127.008 59.2893 127.357 59.8572 127.061 60.6441C126.477 61.7203 125.667 62.6394 124.695 63.3305C123.079 64.6183 123.262 66.3965 122.439 65.8447C121.929 65.4212 121.563 64.8324 121.398 64.168C121.232 63.5035 121.275 62.7998 121.521 62.164C121.904 61.288 122.459 60.8398 121.631 60.504C118.16 59.098 122.091 55.7488 120.434 55.4436C115.994 54.6246 120.391 49.2415 117.302 50.319C116.642 50.6213 115.911 50.6973 115.209 50.5363C114.507 50.3753 113.87 49.9854 113.387 49.4211C113.203 49.1291 112.929 47.6326 112.215 47.4311C111.415 47.2078 111.45 48.294 110.871 49.3291C110.153 50.6212 108.711 50.576 107.725 49.2824C106.739 47.9889 106.691 49.2153 106.15 50.63C106.031 51.285 105.695 51.873 105.202 52.2876C104.71 52.7021 104.094 52.9158 103.466 52.8901C102.788 52.9985 102.095 52.8752 101.487 52.5379C100.879 52.2007 100.388 51.6671 100.084 51.014C99.8088 50.5132 99.5916 50.084 99.3124 50.173C99.1612 50.2227 98.8271 50.3701 98.6098 51.5089C98.3926 52.6477 97.6473 54.7107 95.2397 53.6157C95.0622 53.5309 94.8699 53.487 94.6753 53.487C94.4806 53.487 94.2883 53.5309 94.1108 53.6157C93.4082 54.261 95.6233 57.1547 92.6616 58.1505C90.7613 58.7885 89.2901 57.7125 89.0096 58.4293C88.5118 59.701 90.5551 59.5973 90.9194 60.6763C91.6427 62.8049 89.6462 64.4066 91.2591 65.8885C91.8505 66.4345 92.2397 67.1862 92.3568 68.0091C92.474 68.8319 92.3115 69.6722 91.8984 70.3794C90.2484 73.1534 94.3542 73.1826 92.6286 76.6107C92.0002 77.8575 92.3013 73.8148 87.1863 74.6689C85.9241 74.8791 87.3596 72.6059 87.5039 71.9402C87.6414 71.3211 87.3816 70.8568 86.5291 70.4904C85.1664 69.9064 84.8887 69.0085 85.5047 67.5514C87.3568 63.1714 81.6547 65.9936 83.7956 61.7902C84.7663 59.8922 82.7107 59.7331 81.6134 59.0323C78.1182 56.7985 79.3103 51.7089 84.0706 50.3453C85.9076 49.8182 87.8821 50.4256 87.1808 48.5393C86.5634 46.8807 86.6611 46.0967 87.5782 45.3273C88.0828 44.7505 88.7701 44.3916 89.5084 44.3194C90.2467 44.2472 90.9841 44.4667 91.5794 44.936C92.9091 45.8894 93.0796 44.46 93.7162 42.3693C94.1287 41.0057 96.3672 39.3573 97.7037 41.1254C98.0282 41.5634 98.5424 42.6701 99.1736 42.4963C99.9023 42.2963 100.058 41.1634 100.399 40.4436C100.644 39.8321 101.067 39.3203 101.607 38.9833C102.146 38.6462 102.773 38.5017 103.396 38.571C104.018 38.6403 104.603 38.9197 105.065 39.3681C105.527 39.8166 105.841 40.4105 105.962 41.0626C106.154 42.3766 107.088 42.5022 107.645 41.3283C108.558 39.4055 109.343 38.3032 110.296 37.9046C110.794 37.6979 111.336 37.6396 111.863 37.7358C112.39 37.832 112.882 38.0792 113.287 38.4507C113.708 38.9522 113.94 39.6019 113.937 40.2742Z" fill="#585858"/>
<path d="M128.22 88.003C128.754 89.1375 128.125 89.9434 127.133 90.5288C125.099 91.729 128.175 92.094 127.849 93.4488C127.351 95.5264 125.886 93.754 125.63 96.3995C125.637 96.7901 125.546 97.1756 125.366 97.5162C125.186 97.8567 124.923 98.1399 124.605 98.3364C124.287 98.5328 123.925 98.6354 123.557 98.6334C123.19 98.6315 122.829 98.5251 122.513 98.3252C121.745 97.988 121.392 98.1792 121.285 98.991C121.01 101.089 118.638 100.731 117.622 99.2932C117.017 98.4377 116.434 99.0392 116.133 100.083C116.011 100.497 115.79 100.871 115.492 101.168C115.194 101.465 114.829 101.676 114.432 101.78C114.036 101.883 113.62 101.877 113.227 101.76C112.833 101.643 112.474 101.421 112.185 101.114C109.936 99.2786 111.212 103.672 107.852 102.783C106.9 102.53 106.171 102.131 106.057 100.914C105.822 98.388 102.544 102.8 101.273 99.1866C100.916 98.1719 101.281 96.7849 99.9641 96.9966C99.6499 97.0678 99.3316 97.1166 99.0112 97.1426C98.7751 97.1769 98.5347 97.1487 98.3114 97.0605C98.088 96.9724 97.8886 96.827 97.7309 96.6373C97.5732 96.4476 97.4621 96.2195 97.4075 95.9732C97.3528 95.727 97.3563 95.4702 97.4176 95.2257C97.8301 91.7611 98.3265 91.5523 96.528 88.9301C95.9353 88.0673 94.2372 86.7591 95.3867 84.8421C96.7287 82.5967 99.5392 85.4261 99.6382 83.3164C99.7028 81.9616 100.609 81.3338 101.727 81.9075C104.541 83.3515 102.593 78.3729 106.075 79.7774C108 80.5556 107.085 78.9627 108.42 78.8707C109.917 78.9147 111.38 78.3903 112.545 77.3918C113.105 76.8501 114.058 77.0998 114.883 77.856C115.636 78.5466 115.885 78.5262 116.505 77.7217C117.436 76.5172 118.242 76.526 119.154 77.7728C119.673 78.4838 119.721 79.6956 120.907 78.8109C122.258 77.802 123.056 77.602 123.626 78.0809C124.451 78.77 123.963 79.9614 124.128 80.9673C124.293 81.9732 125.285 82.4463 125.18 85.2801C125.213 86.9504 127.12 85.667 128.22 88.003ZM116.071 87.6205C118.777 76.98 116.382 82.5879 109.252 84.4625C101.321 86.5474 101.874 84.8086 108.66 91.4705C110.802 93.5715 112.54 93.5408 113.74 92.6955C114.972 91.8239 115.462 90.0149 116.071 87.6205Z" fill="#585858"/>
<path d="M125.854 102.04C127.15 103.477 130.133 102.579 132.505 102.833C131.839 104.937 129.216 108.834 127.452 108.247C122.011 108.129 116.16 112.714 115.38 114.602C114.507 116.712 108.866 115.446 106.795 114.748C105.056 114.164 103.364 113.42 101.652 112.742C101.171 112.552 101.174 112.357 101.61 112.073C107.522 108.225 106.56 109.591 105.835 103.776C107.067 104.524 108.527 104.725 109.897 104.334C112.111 103.443 110.903 102.678 112.633 103.195C116.886 104.465 116.592 100.74 117.8 101.478C118.336 101.812 118.939 102.004 119.558 102.038C120.178 102.073 120.797 101.948 121.362 101.675C121.873 101.424 122.354 100.215 122.385 100.207C125.737 99.7423 124.069 100.064 125.854 102.04Z" fill="#FFCEB6"/>
<path d="M80.4183 198.996C80.4998 199.391 80.5568 199.791 80.5888 200.194C80.2567 200.025 79.9352 199.834 79.6263 199.621C76.0579 197.137 72.6109 194.461 69.2986 191.604C64.2194 187.204 61.4611 183.668 61.105 178.004C61.0644 176.187 61.4811 174.391 62.3123 172.801C63.5786 170.928 64.933 168.938 67.4946 169.193C69.2716 169.522 70.9953 170.119 72.6138 170.964C73.5914 171.576 72.6289 169.474 80.4183 198.996Z" fill="#FFCEB6"/>
<path d="M66.6876 147.841C67.2651 150.031 70.6628 161.749 70.8003 163.522C70.0949 163.205 67.8481 161.431 64.8355 159.419C62.1399 157.472 59.6028 155.288 57.251 152.89C55.7741 151.37 54.5978 149.551 53.7913 147.542C52.9847 145.532 52.5641 143.372 52.554 141.188C52.7328 134.881 56.932 133.158 58.4858 132.939C59.5811 132.857 60.6815 132.978 61.7376 133.297C63.9555 133.849 63.5829 136.042 66.6876 147.841Z" fill="#FFCEB6"/>
<path d="M129.544 71.5892C129.265 72.8638 128.626 74.0176 127.713 74.8961C126.75 75.848 124.884 76.4437 124.446 75.2771C124.222 74.68 124.237 73.7544 123.483 73.985C122.92 74.1573 123.157 75.0917 123.289 75.902C123.475 77.0379 122.456 76.2451 121.524 76.6817C119.588 77.5883 119.984 74.5077 116.711 75.448C115.507 75.794 116.347 77.0773 113.663 75.6757C113.161 75.4144 114.969 70.9482 108.941 70.8577C108.379 70.8462 107.838 70.6303 107.408 70.246C107.124 69.9919 106.42 69.516 106.228 69.9116C106.166 70.1449 106.158 70.3906 106.203 70.6281C106.249 70.8656 106.348 71.088 106.491 71.2767C107.748 73.128 109.088 71.8856 110.91 72.6915C112.54 73.4113 112.684 75.9575 110.38 76.8204C108.518 77.5153 107.048 76.1677 106.832 77.7781C106.811 77.9241 106.312 78.1563 106.079 78.1052C104.154 77.6832 103.454 78.0292 102.553 79.8849C102.04 80.9419 99.8581 78.8103 98.3071 82.0997C97.9124 82.9363 96.0644 81.3697 94.1408 84.1262C93.2484 85.4066 93.5826 87.8448 90.4366 87.0462C88.0991 86.452 85.7918 82.6574 85.2817 80.7288C84.0332 76.0115 89.3269 75.0202 90.7886 77.1051C91.6521 78.3358 92.6806 79.6367 93.4396 78.3271C95.5282 74.7194 93.6747 72.9251 93.2567 71.8155C93.0766 71.3381 95.2532 67.7698 92.3217 64.7593C91.5586 63.9767 92.8497 64.0293 92.3217 60.4158C92.1113 58.9981 95.5048 60.629 95.7936 56.0183C95.8472 55.1554 98.3772 55.9497 99.2984 53.4954C99.3754 53.2895 99.4634 52.9494 99.8306 53.2034C100.901 54.1501 102.274 54.6209 103.664 54.5174C104.537 54.52 105.386 54.2122 106.076 53.6431C106.765 53.074 107.256 52.2762 107.469 51.3769C107.495 51.3098 107.752 51.2689 107.841 51.3229C110.789 53.0924 112.013 49.9199 112.336 50.4951C113.685 52.8953 116.504 51.7171 116.926 52.0106C117.094 52.1288 116.926 52.6968 116.926 53.1917C116.915 53.8393 117.081 54.4765 117.403 55.0265C117.725 55.5765 118.19 56.0157 118.742 56.2913C119.383 56.611 119.196 57.0082 119.081 57.5484C118.5 60.2406 119.702 60.7487 120.344 61.3298C120.553 61.5196 120.299 61.9955 120.219 62.3226C119.402 65.6441 122.063 68.1085 123.454 67.4034C124.262 66.9946 123.967 65.3594 125.496 64.4396C128.563 62.5751 130.334 67.7946 129.544 71.5892ZM127.545 68.5057C128.283 68.8079 128.56 66.6982 127.482 65.8368C125.694 64.4045 124.182 67.4588 124.512 69.6007C124.769 71.2782 126.786 71.3527 126.529 72.1542C126.325 72.5353 125.916 72.6783 125.322 72.3352C125.095 72.2038 124.846 72.2812 124.889 72.7134C125.07 74.5384 127.465 73.7164 127.71 72.1002C127.931 70.6402 125.758 70.1496 125.729 69.1714C125.7 68.1932 125.905 66.9916 126.589 67.015C127.274 67.0384 127.273 68.3947 127.545 68.5057ZM113.121 59.5267C113.212 59.2121 113.194 58.8736 113.071 58.5718C112.947 58.27 112.727 58.0247 112.449 57.8798C111.734 57.4632 110.943 57.2145 110.129 57.1505C109.316 57.0865 108.499 57.2087 107.734 57.5089C107.141 57.7177 106.976 58.2798 107.261 59.2945C107.458 59.9924 107.851 60.0377 108.929 59.9077C109.681 59.6435 110.477 59.548 111.266 59.6274C111.744 59.6668 112.767 60.3151 113.121 59.5267ZM111.552 68.6458C112.822 68.3728 112.156 65.4338 110.928 65.5579C110.641 65.5857 110.03 66.0178 110.498 67.637C110.688 68.3086 111.008 68.7641 111.552 68.6458ZM102.603 71.5658C102.79 71.2575 102.902 70.9047 102.929 70.5391C102.956 70.1734 102.897 69.8063 102.758 69.4707C102.699 69.2158 102.555 68.992 102.353 68.8405C102.151 68.689 101.904 68.6199 101.658 68.6458C100.727 68.7393 100.833 69.9817 101.054 70.9439C101.087 71.1163 101.16 71.277 101.267 71.4109C101.374 71.5448 101.512 71.6474 101.667 71.709C101.822 71.7705 101.99 71.789 102.153 71.7627C102.317 71.7364 102.472 71.6661 102.603 71.5585V71.5658ZM99.9461 61.6378C100.104 60.4392 99.9199 60.0391 98.7003 60.1983C98.1618 60.1986 97.6302 60.3258 97.1436 60.5706C96.6569 60.8154 96.2275 61.1718 95.8863 61.614C95.545 62.0563 95.3003 62.5734 95.1699 63.1281C95.0395 63.6829 95.0266 64.2614 95.1322 64.8221C95.1886 65.4061 96.3518 66.066 96.3807 64.7491C96.4274 62.6613 99.7687 62.9781 99.9461 61.6261V61.6378ZM91.0086 84.8956C92.3533 84.7409 92.1443 83.8736 91.4568 83.9276C90.4558 84.0036 90.5397 83.2765 90.9316 82.5669C91.1687 82.1273 91.2933 81.6295 91.2932 81.123C91.2532 80.6646 91.1213 80.2205 90.9065 79.8207C90.6916 79.4208 90.3987 79.0743 90.0474 78.8045C89.6963 78.43 89.247 78.1765 88.7581 78.0773C88.2692 77.9781 87.7636 78.0376 87.3071 78.2482C86.8882 78.404 86.5443 78.7294 86.3506 79.1533C86.1569 79.5773 86.129 80.0655 86.2731 80.5112C86.3349 80.7813 86.4367 81.2091 86.8877 81.0792C87.3387 80.9492 87.3112 80.485 87.3002 80.2032C87.2658 79.6382 87.4831 79.4732 87.9451 79.3695C88.9076 79.1564 89.2912 79.882 89.8013 80.4893C90.2798 81.0587 90.0942 81.434 89.7422 82.1552C89.2183 83.2181 89.1001 84.862 91.0141 84.8839L91.0086 84.8956Z" fill="#FFCEB6"/>
<path d="M164.986 120.126C165.54 119.271 165.83 118.254 165.817 117.216C165.805 116.178 165.489 115.17 164.914 114.33C163.882 112.562 160.572 107.906 158.618 108.04C157.856 108.055 157.105 108.232 156.408 108.559C155.712 108.887 155.083 109.359 154.561 109.947C150.748 114.165 150.332 115.899 150.46 117.773C150.771 122.309 153.461 128.525 157.691 127.847C161.526 127.244 164.175 121.491 164.986 120.126Z" fill="#FFDFD2"/>
<path d="M91.8213 210.871C98.1202 234.336 98.3113 232.56 117.534 227.538C146.336 220.017 128.655 224.3 160.296 215.522C173.221 211.936 174.383 212.009 174.621 211.288C175.908 207.346 177.729 201.033 178.734 198.05C180.63 192.422 181.862 191.121 180.884 189.236C174.646 177.209 173.824 176.739 170.558 168.109C164.417 151.885 165.366 157.429 156.258 146.488C150.663 139.772 141.64 124.915 142.67 116.355C143.148 113.403 144.392 110.651 146.262 108.409C148.133 106.168 150.556 104.525 153.258 103.666C158.003 102.365 159.892 105.827 160.776 106.84C169.26 116.547 165.572 113.343 167.789 116.579C169.215 118.667 163.264 98.2301 157.634 71.7574C151.203 41.5077 148.323 32.4834 143.824 16.7242C142.463 11.9588 140.386 8.58907 135.761 8.78179C129.477 9.04459 115.211 12.7807 109.185 14.3853C51.879 29.6364 51.3826 30.4657 49.9127 34.8413C47.7127 41.4201 70.7976 132.549 91.8213 210.871ZM231.19 274.706C231.338 275.625 231.945 279.537 231.418 280.275C231.376 280.332 231.32 280.377 231.257 280.405C231.193 280.433 231.124 280.443 231.056 280.434C230.988 280.425 230.923 280.398 230.868 280.355C230.812 280.311 230.768 280.254 230.74 280.187C230.526 279.524 230.306 277.61 230.016 276.065C229.038 270.648 228.32 265.181 227.864 259.686C226.214 242.096 229.693 217.658 228.243 192.672C227.443 178.879 222.588 173.546 214.92 161.089C202.355 140.674 210.856 146.238 188.839 120.418C184.759 115.635 184.301 116.448 179.489 108.58C176.554 103.783 168.566 93.2997 163.919 91.082C164.034 92.1478 166.242 101.178 166.438 101.968C171.072 120.559 170.162 119.397 175.101 125.263C180.567 131.749 186.068 133.05 190.198 139.167C194.128 144.99 196.885 149.523 199.566 153.138C206.522 159.671 212.737 167.043 218.086 175.104C219.993 177.987 220.222 178.53 220.011 179.368C219.881 179.885 219.04 180.205 218.761 179.498C217.208 175.547 204.503 159.328 199.691 155.408C195.738 152.184 192.165 142.763 186.354 137.284C181.339 132.556 178.684 132.235 173.808 126.087C171.141 122.729 170.107 120.393 167.952 118.31C166.834 117.231 167.493 122.345 161.253 128.016C160.155 128.955 158.792 129.474 157.382 129.491C155.972 129.508 154.598 129.02 153.48 128.108C151.184 125.967 150.23 123.558 149.569 119.748C149.035 117.648 149.286 115.411 150.268 113.503C151.528 111.112 153.317 109.081 155.48 107.586C156.383 107.138 157.333 106.803 158.309 106.589C157.255 104.708 155.79 104.107 153.002 105.129C151.247 105.804 149.642 106.858 148.29 108.225C146.937 109.591 145.866 111.24 145.144 113.068C142.793 118.983 144.899 124.456 147.701 130.15C155.928 146.873 162.516 149.561 166.855 156.048C171.549 163.064 170.247 166.833 178.543 181.434C182.439 188.296 183.377 189.874 182.118 193.625C176.699 209.77 175.317 212.862 173.868 224.513C170.81 249.187 176.37 255.903 183.895 267.978C184.601 269.109 183.391 270.039 182.658 268.944C164.843 242.08 179.336 247.211 162.72 229.218C161.92 228.351 163.116 227.674 163.599 228.007C167.265 230.534 168.607 233.334 171.628 238.251C171.572 232.376 171.946 226.506 172.746 220.692C172.847 219.902 173.12 220.286 164.941 222.495C128.081 232.448 118.976 234.685 116.541 235.504C115.678 235.796 116.012 236.199 116.129 236.526C121.216 250.943 119.416 246.184 120.414 249.055C122.47 254.97 124.102 254.882 127.681 263.486C131.065 271.618 138.041 274.75 142.458 278.477C144.021 279.926 145.489 281.487 146.85 283.149C147.158 283.492 147.439 284.053 146.934 284.463C145.867 285.339 145.917 283.853 140.214 278.727C138.269 276.975 129.318 272.98 125.715 262.917C123.73 257.369 121.6 257.249 118.28 247.524C116.877 244.001 115.644 240.405 114.584 236.749C114.283 235.661 113.927 236.603 108.016 237.917C89.2982 242.065 91.6536 239.935 81.5803 203.658C80.8117 200.884 70.5185 197.303 62.5778 187.029C55.344 177.669 61.8285 165.615 68.698 167.551C70.1472 167.96 71.0877 168.541 72.46 168.941C72.075 166.215 71.1743 165.488 68.7158 163.933C61.5287 159.391 53.0573 153.228 51.3991 145.321C50.9106 143.513 50.7446 141.625 50.9096 139.753C51.1356 137.714 51.9457 135.798 53.2304 134.265C54.515 132.731 56.2123 131.653 58.0926 131.176C59.5529 131.04 61.0244 131.193 62.4321 131.628C62.3895 129.943 60.118 123.476 51.1653 83.6082C42.1948 43.6086 41.5761 42.5195 46.2002 35.9144C46.7763 35.0925 50.5301 30.1985 52.4276 29.3619C64.9951 23.814 116.038 10.8784 127.518 8.47227C143.765 5.06609 143.171 7.71015 150.446 34.6384C157.087 59.2189 161.955 88.0744 163.695 89.054C167.657 91.3584 171.131 94.5008 173.903 98.2871C175.128 99.8931 176.64 101.27 177.83 102.909C180.03 105.945 182.405 111.027 186.391 115.319C197.053 126.81 202.436 133.018 208.978 146.445C218.632 166.259 222.115 167.587 226.316 176.813C230.229 185.401 230.441 199.223 229.995 214.1C229.075 244.324 227.604 252.432 231.19 274.706ZM173.165 218.258C174.42 211.999 175.744 213.109 164.56 216.214C123.544 227.614 119.354 228.899 105.692 232.038C92.0661 235.169 93.9732 220.958 75.9662 158.41C68.2978 131.79 48.5377 47.847 47.7883 36.4123C45.3752 39.4987 44.2752 42.4844 45.1195 47.9069C50.0695 79.8809 87.5506 223.107 92.0372 233.136C93.2499 235.848 94.4008 236.752 96.2351 237.282C98.4048 237.91 100.595 237.984 104.638 237.028C108.68 236.072 173.14 218.369 173.162 218.258H173.165ZM164.986 120.126C165.54 119.27 165.831 118.254 165.818 117.216C165.805 116.178 165.49 115.169 164.915 114.33C163.882 112.561 160.573 107.906 158.619 108.04C157.857 108.055 157.106 108.232 156.409 108.559C155.712 108.886 155.084 109.358 154.561 109.947C150.748 114.165 150.333 115.899 150.461 117.772C150.772 122.308 153.461 128.525 157.692 127.846C161.527 127.243 164.175 121.491 164.986 120.126ZM80.589 200.195C80.557 199.792 80.5 199.393 80.4184 198.998C72.6291 169.474 73.5916 171.576 72.614 170.966C70.9948 170.119 69.2701 169.522 67.4921 169.192C64.9305 168.936 63.5761 170.926 62.3097 172.8C61.4786 174.389 61.0618 176.185 61.1025 178.003C61.4586 183.666 64.2168 187.201 69.2961 191.603C72.6084 194.459 76.0554 197.135 79.6237 199.62C79.9335 199.833 80.2559 200.026 80.589 200.195ZM70.8127 163.518C70.6752 161.746 67.2776 150.028 66.7001 147.838C63.5898 136.038 63.9638 133.845 61.7501 133.296C60.6954 132.977 59.5964 132.855 58.5023 132.936C56.9486 133.152 52.7493 134.878 52.5706 141.185C52.5806 143.369 53.0013 145.529 53.8078 147.539C54.6144 149.548 55.7906 151.366 57.2676 152.887C59.6194 155.284 62.1565 157.468 64.8521 159.416C67.8537 161.431 70.1005 163.205 70.8127 163.518Z" fill="#000001"/>
<path d="M189.971 144.521C190.049 144.606 190.099 144.715 190.113 144.832C190.128 144.95 190.107 145.069 190.053 145.172C189.379 146.443 190.367 145.155 184.536 151.504C183.624 152.497 182.622 151.336 183.543 150.336C189.28 144.142 189.351 143.841 189.971 144.521Z" fill="#000001"/>
<path d="M187.562 141.524C187.442 142.44 185.663 141.781 177.973 152.766C177.365 153.642 176.478 152.766 176.975 151.833C179.53 147.776 182.611 144.122 186.128 140.979C187 140.243 187.621 141.075 187.562 141.524Z" fill="#000001"/>
<path d="M185.028 139.456C178.966 142.768 178.978 146.063 177.63 144.712C177.553 144.636 177.505 144.534 177.494 144.423C177.483 144.313 177.509 144.201 177.568 144.11C178.434 142.617 179.603 141.348 180.989 140.395C183.543 138.423 184.289 138.09 184.822 138.205C184.948 138.233 185.064 138.3 185.154 138.399C185.243 138.497 185.303 138.622 185.325 138.757C185.348 138.891 185.331 139.03 185.278 139.155C185.225 139.28 185.138 139.385 185.028 139.456Z" fill="#000001"/>
<path d="M174.982 185.892C175.131 187.012 175.257 186.939 173.694 187.386C168.635 188.831 96.2058 209.093 94.8844 209.035C94.4417 209.016 94.1639 208.261 94.5338 208.023C95.9322 207.125 103.128 205.413 148.758 192.839C171.219 186.647 174.843 184.844 174.982 185.892Z" fill="#000001"/>
<path d="M168.869 168.057C170.204 168.139 169.323 169.85 169.162 170.047C168.014 171.446 166.756 172.747 165.489 174.026C164.586 174.937 163.58 173.996 163.221 172.753C162.621 170.678 160.909 172.661 158.389 175.535C156.559 177.623 155.47 175.589 154.566 175.051C153.381 174.342 152.486 175.303 149.449 178.598C148.474 179.654 147.762 179.75 146.866 178.182C146.343 177.265 145.366 177.613 144.739 177.918C144.035 178.169 143.393 178.587 142.863 179.141C142.333 179.694 141.928 180.367 141.679 181.111C141.608 181.351 141.455 181.554 141.25 181.679C141.045 181.805 140.803 181.844 140.572 181.789C140.341 181.733 140.138 181.588 140.003 181.381C139.868 181.175 139.812 180.922 139.844 180.673C139.953 179.661 139.95 177.899 144.76 175.778C145.275 175.545 145.842 175.472 146.394 175.568C146.946 175.664 147.462 175.924 147.88 176.319C149.174 177.573 151.592 169.974 156.071 173.43C157.044 174.18 157.212 173.63 160.409 170.428C162.092 168.743 163.938 169.057 164.311 170.377C165.047 172.985 166.547 167.914 168.869 168.057Z" fill="#000001"/>
<path d="M161.15 158.084C161.261 159.021 160.724 159.376 159.985 159.465C158.625 159.627 158.17 160.843 156.77 162.621C156.597 162.921 156.348 163.162 156.051 163.317C155.754 163.473 155.422 163.536 155.093 163.5C154.764 163.463 154.451 163.329 154.19 163.113C153.93 162.896 153.732 162.606 153.62 162.275C153.07 161.107 152.764 160.923 151.789 161.753C150.818 162.592 149.944 163.551 149.186 164.608C148.415 165.663 147.233 165.793 146.622 164.436C146.164 163.422 145.266 161.712 143.819 163.338C141.85 165.553 140.682 167.705 139.199 165.547C138.055 163.881 136.36 166.715 135.27 167.847C133.593 169.58 133.142 169.063 132.425 167.765C131.777 166.597 131.446 166.385 130.507 167.356C128.582 169.339 128.549 171.916 127.231 171.319C125.238 170.415 130.868 161.375 133.694 165.479C134.814 167.099 135.492 161.759 139.485 162.851C140.017 162.997 140.426 163.703 140.899 163.372C141.7 162.808 142.084 162.115 143.528 160.795C144.164 160.211 145.405 159.627 146.184 160.335C146.941 161.02 147.834 162.525 148.408 162.023C150.285 160.417 151.123 158.436 153.204 158.834C155.14 159.206 154.991 161.566 155.743 160.275C157.399 157.443 161.389 155.635 161.15 158.084Z" fill="#000001"/>
<path d="M150.769 70.3693C152.012 77.9967 151.461 85.8321 149.164 93.1788C147.136 100.167 143.419 106.47 138.383 111.458C137.206 112.708 137.405 112.772 137.833 113.235C140.014 115.88 141.495 119.092 142.124 122.544C142.247 123.712 142.282 124.888 142.229 126.062C142.251 128.486 141.514 130.848 140.135 132.778C130.005 147.189 111.984 138.668 112.521 124.143C112.614 121.604 113.274 123.099 103.831 122.461C99.5214 122.367 95.2728 121.365 91.3318 119.513C85.3093 116.429 83.739 116.377 77.6478 110.327C66.5034 99.2554 55.7261 71.2978 75.5715 46.0661C96.279 19.7365 143.634 26.7153 150.769 70.3693ZM144.628 100.606C158.671 72.6366 143.391 37.639 115.449 32.7567C106.858 31.2528 98.0402 32.5493 90.1575 36.4754C75.2814 43.8863 65.4226 61.3917 66.0304 79.1906C66.4235 86.2215 68.3404 93.061 71.6317 99.1761C74.923 105.291 79.4998 110.517 85.0054 114.445C87.1207 115.739 89.3061 116.9 91.5504 117.92C91.7053 118.016 91.8872 118.05 92.0635 118.016C92.2398 117.982 92.3991 117.883 92.5129 117.736C106.97 104.901 105.688 111.235 104.188 103.136C104.079 102.552 103.857 102.298 103.263 102.362C102.837 102.43 102.402 102.401 101.987 102.278C101.572 102.155 101.186 101.94 100.855 101.648C100.523 101.355 100.254 100.992 100.063 100.582C99.8732 100.171 99.7667 99.7227 99.7509 99.2656C99.7124 98.7458 99.4965 98.7064 99.0813 98.7517C98.7197 98.8293 98.3466 98.8235 97.9873 98.7347C97.628 98.6459 97.2909 98.4761 96.9989 98.2368C96.7068 97.9976 96.4665 97.6944 96.2944 97.348C96.1223 97.0015 96.0223 96.6198 96.0013 96.2288C95.8321 94.4111 96.6296 92.1919 95.9435 90.8166C95.6163 90.1596 94.981 89.6675 94.662 89.0076C94.4173 88.5068 94.1904 88.117 93.8824 88.0557C92.9318 88.6674 91.8147 88.921 90.7116 88.7755C89.576 88.6693 88.5087 88.1541 87.6866 87.3155C84.5241 84.1035 81.8828 78.5642 85.2116 75.6136C85.6393 75.234 84.8431 73.7156 85.8359 72.4468C86.1109 72.0979 85.7946 72.0497 85.6984 72.0088C84.8709 71.6038 84.2263 70.87 83.9033 69.9654C83.5803 69.0607 83.6048 68.0576 83.9714 67.1719C84.6809 65.4753 80.5683 65.8754 82.0684 61.7903C82.2678 61.2457 81.8291 61.0457 81.198 60.7683C80.2574 60.2417 79.4713 59.4506 78.9256 58.4815C78.38 57.5124 78.0958 56.4027 78.1042 55.2737C78.1126 54.1446 78.4132 53.0398 78.9731 52.0799C79.5331 51.1201 80.3308 50.3422 81.2791 49.8314C83.5864 48.3276 85.7121 48.9554 85.2474 47.2779C84.5943 44.9273 87.9699 42.3329 90.229 42.6059C92.0069 42.8234 91.5243 43.5272 92.4936 41.1152C93.2925 39.1253 96.3436 37.785 98.16 39.626C99.4814 40.9619 98.4171 36.5907 104.037 36.8973C106.787 37.0433 106.66 39.756 107.375 38.5982C107.85 37.5936 108.653 36.807 109.634 36.3859C110.615 35.9648 111.708 35.9379 112.706 36.3104C113.168 36.35 113.612 36.5128 113.999 36.7836C114.385 37.0544 114.701 37.4245 114.917 37.8594C115.489 39.2961 116.223 37.0973 118.241 37.6536C120.666 38.3223 121.211 39.6903 121.428 40.7619C121.58 41.5138 121.282 42.6497 121.652 42.7548C124.825 43.6615 126.526 46.8136 124.94 49.4343C124.605 49.9862 124.506 50.2213 124.841 50.4169C125.469 50.6684 126.027 51.0842 126.463 51.6258C126.761 52.0445 126.977 52.522 127.098 53.0304C127.22 53.5389 127.245 54.0679 127.171 54.5867C126.933 56.3299 125.732 57.0891 126.628 57.4366C127.045 57.5961 127.42 57.8598 127.722 58.2055C128.023 58.5512 128.241 58.9687 128.359 59.4229C128.476 59.8771 128.489 60.3546 128.396 60.8151C128.304 61.2757 128.108 61.7058 127.826 62.0692C127.624 62.3612 127.485 62.551 127.919 62.8561C128.798 63.3961 129.517 64.1846 129.998 65.1337C130.933 67.182 131.203 69.5018 130.764 71.73C130.635 73.13 130.08 74.4472 129.182 75.4818C128.285 76.5165 127.094 77.2122 125.791 77.4634C124.773 77.7554 125.274 78.1598 125.459 79.2154C125.578 79.8885 125.353 80.5498 125.516 81.2112C125.616 81.6171 126.048 82.4128 126.195 82.8581C126.632 84.1867 126.107 85.0072 126.914 85.1941C127.814 85.4315 128.593 86.0285 129.089 86.8608C129.585 87.6932 129.759 88.6965 129.575 89.6617C129.54 90.0094 129.412 90.3394 129.208 90.6133C129.003 90.8872 128.729 91.0939 128.418 91.2093C128.215 91.2925 128.226 91.4736 128.373 91.6473C128.687 91.9206 128.927 92.2787 129.066 92.684C129.205 93.0894 129.24 93.527 129.165 93.9512C129.06 94.5264 128.63 95.1192 127.476 95.6579C126.521 96.0959 127.014 98.175 125.905 99.0816C125.454 99.451 126.496 101.826 128.161 101.737C128.821 101.702 133.124 101.46 137.216 101.234C139.698 101.216 142.175 101.005 144.628 100.601V100.606ZM143.657 102.197C142.85 102.029 144.359 101.964 134.445 102.54C133.982 102.567 133.368 105.735 131.007 108.017C130.847 108.196 130.699 108.386 130.565 108.588C130.774 108.714 130.995 108.82 131.223 108.902C135.498 109.937 135.715 112.157 136.554 111.13C144.41 101.467 142.373 104.124 143.657 102.197ZM137.002 124.903C138.025 124.465 137.277 122.447 136.908 121.339C135.776 117.926 135.449 118.584 133.444 119.219C130.635 120.11 129.528 120.945 129.022 119.408C127.203 113.879 127.571 113.267 124.072 114.59C123.659 114.746 121.292 115.336 121.579 116.994C122.017 118.713 122.584 120.391 123.273 122.014C123.441 122.5 123.112 122.703 122.586 122.903C118.598 124.401 117.505 124.604 117.563 125.44C117.622 126.261 117.816 127.065 118.136 127.814C119.057 130.46 119.57 130.442 120.153 130.248C124.772 128.667 124.872 128.487 125.23 129.372C125.653 131.052 126.215 132.69 126.91 134.265C127.41 135.24 127.597 135.605 130.782 134.427C133.532 133.405 133.944 133.012 133.606 131.993C131.834 126.611 131.75 126.684 133.056 126.335C133.434 126.233 135.777 125.421 137.002 124.897V124.903ZM132.505 102.832C130.133 102.578 127.151 103.476 125.854 102.04C124.066 100.063 125.737 99.7415 122.385 100.206C122.355 100.206 121.873 101.423 121.362 101.675C120.797 101.947 120.178 102.072 119.558 102.037C118.939 102.003 118.336 101.811 117.801 101.477C116.592 100.739 116.886 104.465 112.633 103.194C110.904 102.678 112.111 103.443 109.897 104.333C108.527 104.724 107.067 104.523 105.835 103.776C106.556 109.585 107.518 108.224 101.61 112.073C101.174 112.356 101.171 112.552 101.653 112.741C103.364 113.419 105.056 114.16 106.795 114.747C108.866 115.445 114.507 116.711 115.381 114.601C116.16 112.714 122.011 108.128 127.452 108.246C129.216 108.833 131.839 104.936 132.505 102.832ZM129.544 71.5884C130.332 67.807 128.559 62.5802 125.49 64.4183C123.961 65.3337 124.252 66.9733 123.448 67.3821C122.056 68.0873 119.396 65.6228 120.212 62.3013C120.292 61.9743 120.546 61.4983 120.337 61.3085C119.695 60.7245 118.494 60.2193 119.074 57.5271C119.189 56.9869 119.376 56.5898 118.736 56.27C118.183 55.9944 117.718 55.5552 117.396 55.0052C117.074 54.4553 116.908 53.8181 116.919 53.1705C116.919 52.6755 117.087 52.1076 116.919 51.9893C116.507 51.6973 113.678 52.8755 112.329 50.4738C112.006 49.8986 110.783 53.0712 107.835 51.3017C107.745 51.2476 107.488 51.2885 107.462 51.3557C107.249 52.255 106.759 53.0527 106.069 53.6218C105.38 54.191 104.531 54.4987 103.657 54.4961C102.268 54.5996 100.894 54.1288 99.8238 53.1821C99.4566 52.9339 99.3686 53.2741 99.2916 53.4741C98.3704 55.9284 95.8404 55.1342 95.7868 55.997C95.498 60.6077 92.1045 58.9769 92.3149 60.3945C92.8484 64.0051 91.5573 63.9555 92.3149 64.738C95.2464 67.7486 93.0698 71.3168 93.2499 71.7942C93.6624 72.9009 95.5214 74.6982 93.4328 78.3058C92.6738 79.6198 91.6453 78.3146 90.7818 77.0838C89.3201 74.9989 84.0264 75.9903 85.2749 80.7075C85.785 82.6362 88.0923 86.4307 90.4298 87.0249C93.5758 87.8236 93.2416 85.3854 94.134 84.1049C96.059 81.3499 97.9056 82.915 98.3003 82.0785C99.8513 78.7891 102.033 80.9207 102.546 79.8636C103.447 78.008 104.141 77.662 106.072 78.0839C106.306 78.135 106.805 77.9058 106.825 77.7569C107.041 76.1509 108.511 77.4941 110.373 76.7991C112.677 75.9362 112.533 73.39 110.904 72.6702C109.082 71.8643 107.741 73.1082 106.484 71.2555C106.341 71.0665 106.243 70.8441 106.197 70.6067C106.152 70.3693 106.16 70.1237 106.222 69.8904C106.41 69.4918 107.117 69.9707 107.401 70.2247C107.831 70.609 108.373 70.825 108.935 70.8365C114.963 70.9314 113.154 75.3975 113.656 75.6545C116.34 77.0561 115.5 75.7727 116.705 75.4267C119.979 74.4865 119.583 77.5671 121.517 76.6604C122.449 76.2224 123.468 77.0166 123.283 75.8808C123.145 75.0705 122.913 74.1288 123.477 73.9638C124.23 73.7331 124.215 74.6587 124.439 75.2559C124.878 76.4239 126.738 75.8253 127.706 74.8748C128.619 74.0028 129.26 72.8565 129.544 71.5884ZM127.133 90.5275C128.125 89.9435 128.754 89.1361 128.22 88.0017C127.12 85.6657 125.215 86.949 125.184 85.2773C125.289 82.4435 124.3 81.9704 124.132 80.9645C123.965 79.9585 124.458 78.7672 123.631 78.0781C123.06 77.6021 122.262 77.8021 120.911 78.8081C119.726 79.6928 119.673 78.481 119.158 77.77C118.246 76.5232 117.44 76.5144 116.509 77.7189C115.889 78.5234 115.64 78.5438 114.887 77.8532C114.062 77.0911 113.099 76.8473 112.549 77.3889C111.384 78.3875 109.921 78.9119 108.424 78.8679C107.089 78.9599 108.012 80.5528 106.079 79.7746C102.597 78.3701 104.546 83.3487 101.731 81.9047C100.613 81.3309 99.7069 81.9587 99.6423 83.3136C99.5433 85.4233 96.7328 82.5938 95.3908 84.8393C94.2413 86.7607 95.9408 88.0688 96.532 88.9273C98.3305 91.5553 97.8341 91.7583 97.4216 95.2228C97.3603 95.4673 97.3568 95.7241 97.4115 95.9704C97.4662 96.2167 97.5773 96.4448 97.735 96.6345C97.8927 96.8242 98.0921 96.9695 98.3154 97.0577C98.5388 97.1459 98.7792 97.1741 99.0153 97.1398C99.3356 97.1138 99.6539 97.065 99.9681 96.9938C101.285 96.7777 100.92 98.1618 101.277 99.1838C102.548 102.797 105.826 98.3852 106.061 100.911C106.175 102.129 106.904 102.527 107.857 102.78C111.216 103.665 109.94 99.2641 112.189 101.107C112.478 101.414 112.837 101.636 113.231 101.753C113.624 101.869 114.04 101.876 114.437 101.772C114.833 101.669 115.198 101.458 115.496 101.161C115.794 100.864 116.015 100.49 116.137 100.076C116.438 99.032 117.021 98.4305 117.626 99.286C118.642 100.724 121.013 101.082 121.289 98.9838C121.396 98.172 121.75 97.9808 122.517 98.318C122.833 98.5179 123.194 98.6243 123.561 98.6262C123.929 98.6282 124.291 98.5256 124.609 98.3292C124.927 98.1327 125.19 97.8495 125.37 97.509C125.55 97.1684 125.641 96.7829 125.634 96.3923C125.89 93.7468 127.355 95.5163 127.853 93.4416C128.175 92.0926 125.099 91.7276 127.133 90.5275ZM127.061 60.6427C127.357 59.8616 127.005 59.2879 125.908 58.8338C124.079 58.0775 124.904 57.1212 125.551 55.5123C125.755 55.1336 125.868 54.7071 125.878 54.271C125.889 53.8349 125.798 53.4028 125.612 53.0134C125.427 52.624 125.154 52.2896 124.817 52.04C124.48 51.7904 124.09 51.6336 123.681 51.5834C123.302 51.4988 122.668 51.4374 122.489 51.1075C122.271 50.7104 122.709 50.4213 123.422 49.3438C123.743 48.8758 123.935 48.3215 123.975 47.7438C124.015 47.166 123.902 46.5879 123.648 46.0749C123.433 45.4548 123.034 44.926 122.51 44.5687C121.987 44.2115 121.368 44.0452 120.747 44.0951C120.639 44.0953 120.531 44.069 120.434 44.0183C120.336 43.9675 120.251 43.8937 120.184 43.8024C120.118 43.7111 120.072 43.6049 120.051 43.4919C120.029 43.3788 120.032 43.262 120.06 43.1505C120.29 42.3955 120.279 41.5807 120.027 40.8335C119.84 40.4568 119.568 40.136 119.234 39.9005C118.9 39.6651 118.516 39.5225 118.117 39.4859C117.584 39.3833 117.034 39.4727 116.555 39.7398C116.075 40.007 115.693 40.4366 115.47 40.9605C115.276 41.5664 114.821 41.8365 114.415 41.6744C113.753 41.4131 114.003 41.1985 113.937 40.2728C113.938 39.6004 113.705 38.9513 113.282 38.4507C112.878 38.0793 112.386 37.8321 111.859 37.7358C111.331 37.6396 110.79 37.698 110.292 37.9047C109.339 38.3033 108.554 39.4056 107.641 41.3284C107.084 42.4964 106.15 42.3752 105.958 41.0627C105.837 40.4105 105.523 39.8166 105.061 39.3682C104.599 38.9197 104.014 38.6403 103.391 38.5711C102.769 38.5018 102.142 38.6463 101.602 38.9833C101.063 39.3204 100.64 39.8322 100.394 40.4436C100.053 41.1634 99.898 42.2964 99.1693 42.4964C98.5381 42.6701 98.0239 41.5576 97.6994 41.1255C96.367 39.3574 94.1313 41.0057 93.7119 42.3694C93.0753 44.4601 92.9048 45.8894 91.5751 44.9361C90.9798 44.4668 90.2424 44.2472 89.5041 44.3194C88.7658 44.3916 88.0785 44.7505 87.5739 45.3273C86.6568 46.1011 86.5591 46.8852 87.1765 48.5393C87.8778 50.4257 85.9033 49.8183 84.0663 50.3454C79.306 51.709 78.1139 56.7986 81.6091 59.0324C82.7091 59.7332 84.762 59.8865 83.7913 61.7903C81.6476 65.9936 87.3525 63.1671 85.5004 67.5515C84.8844 69.0115 85.1621 69.9021 86.5248 70.4904C87.3773 70.8569 87.633 71.3212 87.4996 71.9402C87.3553 72.6074 85.9198 74.8792 87.182 74.669C92.297 73.8149 91.9945 77.8576 92.6243 76.6108C94.3499 73.1827 90.2496 73.1549 91.8941 70.3795C92.3072 69.6722 92.4697 68.832 92.3525 68.0091C92.2354 67.1863 91.8462 66.4345 91.2548 65.8885C89.6419 64.4066 91.6384 62.805 90.9151 60.6763C90.5508 59.6032 88.5075 59.701 89.0053 58.4294C89.2803 57.7125 90.757 58.7885 92.6573 58.1505C95.6176 57.1548 93.4039 54.2611 94.1065 53.6158C94.284 53.5309 94.4763 53.4871 94.6709 53.4871C94.8656 53.4871 95.0579 53.5309 95.2354 53.6158C97.6458 54.7108 98.3855 52.6682 98.6055 51.509C98.8255 50.3497 99.1555 50.2227 99.3081 50.1731C99.5831 50.084 99.8018 50.5133 100.08 51.014C100.383 51.6671 100.875 52.2008 101.483 52.538C102.091 52.8752 102.784 52.9985 103.462 52.8901C104.09 52.9172 104.706 52.7045 105.199 52.2908C105.692 51.877 106.03 51.2894 106.15 50.6344C106.691 49.2197 106.739 47.9889 107.725 49.2869C108.71 50.5848 110.153 50.6257 110.871 49.3336C111.449 48.2926 111.421 47.2064 112.215 47.4356C112.929 47.6371 113.203 49.1263 113.387 49.4256C113.87 49.9898 114.507 50.3797 115.209 50.5407C115.91 50.7017 116.642 50.6258 117.301 50.3235C120.391 49.246 115.994 54.629 120.434 55.4481C122.084 55.7532 118.157 59.0981 121.631 60.5084C122.456 60.8442 121.906 61.2983 121.521 62.1684C121.275 62.8042 121.232 63.5079 121.397 64.1724C121.563 64.8369 121.928 65.4257 122.438 65.8491C123.263 66.3951 123.079 64.6212 124.695 63.335C125.668 62.6422 126.477 61.721 127.061 60.6427ZM112.805 120.447C113.905 117.129 113.856 117.227 113.175 117.235C108.635 117.16 104.189 115.853 100.26 113.439C99.8086 113.159 99.9929 113.293 93.7779 118.323C91.879 119.863 112.103 122.561 112.805 120.447Z" fill="#000001"/>
<path d="M140.977 17.3226C141.188 18.4906 141.472 18.1022 134.346 19.8046C133.383 20.0338 133.606 19.4177 133.044 17.4686C132.644 16.0816 132.802 16.0509 133.528 15.7808C135.36 15.1867 137.229 14.7277 139.121 14.407C139.503 14.3281 140.102 14.077 140.26 14.5676C140.559 15.467 140.799 16.3876 140.977 17.3226Z" fill="#000001"/>
<path d="M131.776 19.9486C131.776 20.3968 131.175 20.6465 130.548 20.7925C129.186 21.1093 129.146 21.2086 128.86 20.1355C128.407 18.4346 127.993 16.7161 127.453 15.043C127.403 14.7269 127.418 14.403 127.497 14.0938C127.577 13.7846 127.719 13.4975 127.914 13.2526C128.109 13.0077 128.351 12.8109 128.625 12.6758C128.899 12.5407 129.197 12.4706 129.499 12.4705C129.969 12.5084 131.313 18.3718 131.776 19.9486Z" fill="#000001"/>
<path d="M127.482 65.8454C128.56 66.7068 128.283 68.8151 127.545 68.5143C127.27 68.4034 127.27 67.0456 126.582 67.0237C125.895 67.0018 125.689 68.2033 125.722 69.1801C125.755 70.1568 127.922 70.6401 127.703 72.1088C127.458 73.7251 125.063 74.547 124.881 72.722C124.839 72.284 125.088 72.2125 125.315 72.3439C125.909 72.687 126.318 72.5439 126.522 72.1629C126.779 71.3642 124.762 71.2869 124.505 69.6093C124.183 67.4602 125.689 64.4059 127.482 65.8454Z" fill="#000001"/>
<path d="M126.126 16.1254C127.859 21.5274 127.859 21.6136 126.511 21.9508C125.63 22.1728 124.964 22.4998 124.692 21.3668C124.292 19.6981 123.699 18.3782 123.622 17.5504C123.622 16.2685 125.697 14.791 126.126 16.1254Z" fill="#000001"/>
<path d="M122.288 18.7972C124.106 23.4692 123.029 22.9159 121.437 23.294C121.251 23.3378 121.123 23.1378 121.016 22.856C120.693 22.0561 120.421 21.2343 120.202 20.3959C119.981 18.422 121.824 17.6132 122.288 18.7972Z" fill="#000001"/>
<path d="M119.82 220.125C120.009 221.667 119.336 221.293 116.175 222.232C115.389 222.466 115.995 224.714 113.417 225.341C112.803 225.496 112.163 225.492 111.551 225.329C110.938 225.166 110.372 224.849 109.9 224.405C109.428 224.208 109.454 224.317 109.028 224.431C105.563 225.354 105.542 225.818 104.556 221.191C104.419 220.537 104.8 220.093 105.424 219.95C106.915 219.607 105.755 218.938 104.954 215.445C104.726 214.734 104.721 213.965 104.938 213.251C105.156 212.537 105.585 211.916 106.161 211.482C107.177 210.634 105.894 209.187 107.546 208.248C108.754 207.561 110.227 207.244 111.152 209.089C111.528 209.838 113.765 208.735 114.986 212.301C116.546 216.836 116.647 216.713 117.146 216.566C117.397 216.438 117.671 216.371 117.95 216.371C118.228 216.371 118.503 216.438 118.753 216.566C119.213 216.922 119.54 217.832 119.82 220.125ZM117.989 220.46C118.778 220.324 118.676 220.194 118.498 219.21C118.103 217.124 118.005 217.403 117.344 217.63C116.835 217.809 116.317 217.959 115.793 218.08C114.296 218.413 113.993 218.81 113.631 218.226C113.461 217.947 113.356 217.629 114.828 217.249C115.515 217.071 115.103 216.554 114.349 214.564C113.545 212.433 113.216 210.462 110.737 210.678C109.843 210.755 110.187 208.882 108.758 209.348C107.196 209.857 108.501 211.294 107.521 212.122C107.061 212.377 106.693 212.785 106.474 213.284C106.254 213.783 106.195 214.345 106.305 214.883C106.563 216.115 106.91 217.324 107.345 218.499C107.61 219.261 107.697 219.216 108.071 219.096C108.212 219.079 108.354 219.098 108.487 219.152C108.619 219.206 108.737 219.294 108.83 219.407C108.934 219.537 108.855 220.086 108.692 220.152C105.747 221.32 105.53 220.59 106.355 223.059C106.432 223.289 106.442 223.683 107.102 223.551C107.839 223.408 117.173 220.759 117.989 220.46ZM114.263 223.482C114.505 223.053 114.624 222.622 114.316 222.708C113.225 222.914 112.146 223.183 111.082 223.514C111.058 223.522 111.036 223.538 111.019 223.559C111.002 223.58 110.991 223.605 110.988 223.632C110.984 223.659 110.988 223.687 110.998 223.712C111.008 223.737 111.025 223.759 111.046 223.774C112.014 224.613 113.748 224.704 114.263 223.482Z" fill="#000001"/>
<path d="M117.287 171.003C118.125 171.149 118.788 171.615 118.662 172.075C118.653 173.088 118.095 173.665 116.857 173.351C115.642 173.043 115.428 172.205 113.695 174.62C112.787 175.881 111.973 176.25 110.195 174.662C108.976 173.573 109.299 173.478 106.558 176.953C104.424 179.658 104.024 174.427 101.944 177.145C100.019 179.657 98.6892 182.299 96.5181 180.033C93.6773 177.068 94.2645 183.295 92.3642 183.099C90.3677 182.899 92.6722 178.135 94.358 177.315C97.0158 176.024 97.5301 179.138 98.5256 177.783C99.44 176.366 100.543 175.096 101.801 174.015C103.839 172.719 104.793 175.458 105.537 174.525C107.118 172.542 108.798 170.802 110.822 172.253C111.95 173.062 112.138 173.285 112.989 172.225C114.276 170.616 115.412 170.662 117.287 171.003Z" fill="#000001"/>
<path d="M109.252 84.4616C116.381 82.587 118.778 76.9806 116.071 87.6196C115.46 90.014 114.971 91.8229 113.733 92.6931C112.533 93.5384 110.795 93.5691 108.653 91.4682C101.872 84.8076 101.321 86.5465 109.252 84.4616ZM114.08 90.2257C115.021 87.9044 115.63 85.4469 115.888 82.9345C114.448 83.9018 112.881 84.6369 111.238 85.1157C109.295 85.7521 107.321 86.2751 105.325 86.6823C106.618 88.0883 107.982 89.4188 109.41 90.6681C112.445 93.3253 113.614 91.1557 114.08 90.2257Z" fill="#000001"/>
<path d="M112.449 57.8793C112.727 58.0242 112.947 58.2695 113.071 58.5713C113.194 58.8731 113.212 59.2116 113.121 59.5262C112.767 60.3146 111.746 59.6722 111.268 59.6269C110.479 59.5475 109.683 59.643 108.93 59.9072C107.852 60.0372 107.459 59.9919 107.262 59.294C106.978 58.272 107.143 57.7172 107.735 57.5085C108.5 57.2085 109.317 57.0863 110.13 57.1503C110.943 57.2143 111.734 57.4629 112.449 57.8793Z" fill="#000001"/>
<path d="M110.928 65.5526C112.156 65.4343 112.821 68.3674 111.552 68.6404C111.002 68.7558 110.692 68.3032 110.498 67.6316C110.029 66.0183 110.641 65.5861 110.928 65.5526Z" fill="#000001"/>
<path d="M102.758 69.4631C102.897 69.7988 102.956 70.1658 102.929 70.5315C102.902 70.8971 102.79 71.2499 102.602 71.5582C102.471 71.6681 102.316 71.7401 102.151 71.7673C101.985 71.7944 101.817 71.7758 101.66 71.7132C101.504 71.6507 101.365 71.5462 101.258 71.4101C101.151 71.274 101.079 71.1108 101.049 70.9363C100.825 69.9741 100.721 68.7317 101.652 68.6382C101.899 68.6108 102.147 68.6793 102.351 68.8309C102.554 68.9825 102.698 69.2071 102.758 69.4631Z" fill="#000001"/>
<path d="M101.252 157.915C101.845 159.597 100.471 159.584 94.472 161.558C85.65 164.46 85.8439 167.504 83.6934 157.103C82.9756 153.633 83.2052 151.272 86.1024 149.447C88.4672 148.316 90.9849 147.588 93.5631 147.289C98.201 147.27 98.9682 151.436 101.252 157.915ZM89.5289 161.698C99.719 158.238 99.8867 158.591 99.4715 157.541C96.9044 151.056 96.573 148.232 93.0227 149.009C82.8092 151.246 84.2131 152.714 86.1917 161.761C86.5891 163.583 87.6699 162.329 89.5289 161.698Z" fill="#000001"/>
<path d="M98.7006 60.1876C99.9202 60.0285 100.104 60.4285 99.9464 61.6272C99.769 62.9791 96.4277 62.6623 96.381 64.753C96.3521 66.067 95.1888 65.41 95.1325 64.826C95.0246 64.2643 95.0358 63.6842 95.1651 63.1276C95.2944 62.571 95.5387 62.052 95.8802 61.608C96.2217 61.164 96.652 60.8063 97.1398 60.5606C97.6276 60.3149 98.1607 60.1875 98.7006 60.1876Z" fill="#000001"/>
<path d="M98.0992 189.226C98.1948 189.19 98.2976 189.181 98.3976 189.2C101.423 189.2 100.323 191.313 101.509 189.93C103.1 188.067 105.475 183.689 110.231 186.426C110.979 186.864 111.193 185.248 114.211 183.272C116.805 181.577 119.117 185.024 120.212 184.055C121.025 183.341 122.213 182.522 123.08 181.885C124.549 180.808 126.305 180.726 127.255 182.361C128.146 183.893 128.828 180.89 132.213 178.795C132.79 178.437 133.615 178.503 133.683 179.052C133.958 181.336 131.842 181.983 129.715 184.83C129.511 185.156 129.236 185.425 128.913 185.614C128.591 185.802 128.23 185.905 127.861 185.913C127.493 185.921 127.128 185.834 126.799 185.66C126.469 185.485 126.184 185.229 125.968 184.912C124.674 183.287 124.583 182.722 120.637 186.794C120.475 187.019 120.262 187.197 120.018 187.311C119.773 187.426 119.506 187.473 119.24 187.449C118.974 187.425 118.718 187.331 118.496 187.174C118.274 187.017 118.092 186.804 117.968 186.553C117.159 185.141 116.414 184.89 115.2 185.867C111.677 188.704 111.743 190.965 109.69 188.72C109.376 188.4 109.003 188.152 108.595 187.99C108.188 187.827 107.753 187.755 107.318 187.776C106.883 187.797 106.457 187.912 106.065 188.114C105.673 188.315 105.323 188.599 105.037 188.947C102.666 191.186 101.017 196.069 99.2501 192.403C98.7592 191.381 98.7317 191.381 97.8489 191.997C96.0092 193.295 96.7998 195.516 95.5114 195.414C93.6772 195.268 94.6631 190.488 98.0992 189.226Z" fill="#000001"/>
<path d="M91.4624 83.9166C92.1499 83.8655 92.3589 84.7299 91.0141 84.8846C89.1029 84.8627 89.2184 83.2158 89.7422 82.1471C90.0942 81.4259 90.2799 81.0507 89.8014 80.4813C89.2912 79.8739 88.9021 79.1483 87.9451 79.3614C87.4831 79.4636 87.2659 79.6301 87.3002 80.1951C87.3167 80.474 87.3456 80.9353 86.8877 81.0711C86.4299 81.2069 86.3377 80.7791 86.2731 80.5032C86.129 80.0574 86.1569 79.5693 86.3507 79.1453C86.5444 78.7213 86.8882 78.3959 87.3071 78.2402C87.7636 78.0295 88.2693 77.97 88.7581 78.0692C89.247 78.1684 89.6963 78.4219 90.0475 78.7964C90.3988 79.0663 90.6916 79.4127 90.9065 79.8126C91.1214 80.2125 91.2532 80.6565 91.2932 81.1149C91.2934 81.6215 91.1687 82.1193 90.9316 82.5588C90.5452 83.2655 90.4614 83.9926 91.4624 83.9166Z" fill="#000001"/>
<path d="M90.542 137.19C92.4299 141.15 92.1686 144.083 90.8913 145.706C90.3116 146.386 89.5652 146.881 88.7357 147.136C87.9062 147.391 87.0263 147.396 86.1943 147.15C85.2518 146.822 84.452 146.145 83.9406 145.242C81.8355 141.976 81.0531 136.446 84.8014 135.208C87.7453 134.234 89.6276 135.27 90.542 137.19ZM87.7095 145.869C88.1241 145.867 88.5331 145.767 88.9059 145.574C89.2786 145.381 89.6055 145.101 89.8621 144.755C90.1186 144.409 90.2982 144.007 90.3874 143.577C90.4765 143.147 90.473 142.701 90.377 142.273C90.3102 140.99 90.0236 139.731 89.5314 138.557C88.8329 136.805 88.0189 135.911 85.9096 136.301C85.1581 136.443 84.4875 136.889 84.0382 137.544C83.589 138.199 83.3958 139.014 83.4993 139.817C83.744 141.326 84.2399 142.776 84.9636 144.1C85.1904 144.663 85.577 145.135 86.0694 145.452C86.5618 145.769 87.1353 145.915 87.7095 145.869Z" fill="#000001"/>
<path d="M89.0832 22.0298C89.8642 22.1291 89.6689 23.0226 89.5919 23.7292C88.7958 31.0292 88.9347 31.8162 88.1551 32.0936C87.8251 32.2104 87.6518 32.0045 87.5473 31.6906C87.3892 31.2117 86.9244 29.6247 86.8254 29.5006C86.5092 29.1079 85.7021 29.9079 84.5801 30.4554C83.8252 30.8234 83.5488 29.9313 83.7413 29.5225C83.8953 29.1925 87.5569 23.6007 88.1001 22.7802C88.2857 22.5014 88.6088 21.9685 89.0832 22.0298Z" fill="#000001"/>
<path d="M81.2912 29.3129C81.8412 30.6459 82.3912 32.5716 81.7119 33.4389C81.2458 34.0346 78.1369 36.1983 77.3284 33.4389C77.2542 33.1848 77.0081 32.8476 77.6034 32.5118C78.1988 32.176 78.4642 32.6797 78.5838 32.9308C78.8382 33.4637 79.1214 33.4199 79.5106 33.2608C80.7632 32.7439 80.7673 32.395 80.4731 31.3628C80.1403 30.1948 80.1651 30.224 79.0747 30.5641C78.7997 30.6488 78.2758 30.9087 78.0256 30.1422C77.7657 29.348 78.2456 29.4414 78.6443 29.2253C79.1173 28.9654 79.7292 28.8559 79.6811 28.7362C79.4481 27.9857 79.1488 27.2603 78.7873 26.5696C78.4779 26.2411 77.8867 26.39 77.1854 26.8032C76.8321 27.012 77.0947 27.5332 77.1318 28.0033C77.1634 28.4033 77.2693 28.7202 76.6602 28.9362C76.0511 29.1523 75.9603 28.7552 75.7059 26.9404C75.7486 25.8045 76.2917 25.6965 76.8266 25.4264C80.5033 23.5795 80.7123 27.8836 81.2912 29.3129Z" fill="#000001"/>
<path d="M76.2948 34.0801C76.38 35.8847 75.9661 35.8219 73.9765 36.5358C71.9869 37.2498 71.5015 35.2218 70.0495 29.1395C69.9799 28.9088 69.9687 28.6627 70.0169 28.4259C70.0652 28.1891 70.1713 27.9699 70.3245 27.7904C70.7628 27.3649 71.294 27.0619 71.8701 26.909C72.4463 26.7561 73.0492 26.7579 73.6245 26.9144C75.0463 27.5919 76.2219 32.5281 76.2948 34.0801ZM74.2749 35.124C74.4421 35.0689 74.5953 34.9742 74.723 34.847C74.8506 34.7198 74.9494 34.5634 75.0118 34.3897C75.0741 34.2161 75.0985 34.0296 75.0831 33.8444C75.0676 33.6593 75.0127 33.4802 74.9225 33.3209C73.3674 28.7132 73.41 28.1087 72.2811 28.5365C71.0271 29.0139 71.1413 29.3921 72.9205 34.4407C73.0169 34.7204 73.2128 34.9487 73.4661 35.0765C73.7194 35.2043 74.0099 35.2214 74.2749 35.124Z" fill="#000001"/>
<path d="M68.0857 34.863C68.0857 33.3723 70.0464 33.7023 69.9722 34.6002C69.9502 36.196 68.0857 36.3259 68.0857 34.863Z" fill="#000001"/>
<path d="M67.0078 31.6304C67.0157 31.4518 67.0718 31.2793 67.1694 31.1336C67.267 30.9878 67.4019 30.8749 67.5582 30.8083C67.7145 30.7417 67.8855 30.7242 68.0509 30.7579C68.2163 30.7916 68.3691 30.875 68.4911 30.9983C68.6131 31.1215 68.6992 31.2794 68.7391 31.4531C68.779 31.6268 68.771 31.8091 68.7161 31.9781C68.6613 32.1472 68.5618 32.2959 68.4296 32.4067C68.2973 32.5174 68.1379 32.5855 67.9703 32.6027C67.8448 32.6159 67.7182 32.6002 67.5989 32.5567C67.4797 32.5132 67.3707 32.4429 67.2793 32.3506C67.188 32.2583 67.1165 32.1462 67.0696 32.0219C67.0227 31.8976 67.0017 31.7641 67.0078 31.6304Z" fill="#000001"/>
<path d="M66.4485 37.5064C66.586 39.2452 64.3021 40.3285 63.022 39.7971C62.7066 39.6294 62.4264 39.3956 62.1983 39.1098C61.9703 38.824 61.7991 38.4921 61.6951 38.1342C60.2431 34.3805 59.7482 32.6738 60.162 31.8167C60.3475 31.5119 60.5908 31.2514 60.8763 31.0518C61.1617 30.8522 61.4832 30.718 61.8203 30.6575C62.4715 30.3986 63.182 30.3588 63.8553 30.5436C64.2711 30.8318 64.5835 31.2602 64.7421 31.7598C65.585 33.5711 66.1605 35.5093 66.4485 37.5064ZM65.211 37.6801C65.2949 37.4494 65.1038 37.283 65.0062 36.9632C64.2197 34.4126 63.825 33.2446 63.583 32.6796C63.2998 32.0168 63.2008 31.7087 62.483 31.9306C61.2455 32.3175 61.2593 32.6767 61.4861 33.4067C61.9303 34.8462 62.4321 36.2683 62.9739 37.6713C63.0597 37.9871 63.2495 38.2597 63.5088 38.4393C63.8315 38.5364 64.1758 38.5142 64.4851 38.3762C64.7944 38.2383 65.0504 37.9928 65.211 37.6801Z" fill="#000001"/>
<path d="M60.4901 38.8118C60.7074 39.6177 60.8476 40.4937 60.0597 41.1055C56.2427 44.0693 55.4232 39.7696 54.5377 35.2903C54.1761 33.4624 55.8247 32.6083 57.1791 32.4214C58.8497 32.4623 59.1082 33.6887 60.4901 38.8118ZM58.9267 40.2718C59.6142 39.8192 59.0904 38.8512 59.0106 38.587C57.593 33.8945 57.7044 33.7967 56.9907 33.9807C55.6432 34.3267 55.6254 34.7705 55.7986 35.5064C57.0306 40.7405 57.4981 41.0427 58.9267 40.2674V40.2718Z" fill="#000001"/>
</svg>
