<svg width="315" height="264" viewBox="0 0 315 264" fill="none" xmlns="http://www.w3.org/2000/svg">
<path d="M141.75 114.254C151.228 120.765 144.378 143.48 129.765 134.682C125.812 132.306 123.727 123.131 129.205 116.046C129.848 115.198 130.696 114.472 131.695 113.915C132.693 113.359 133.82 112.984 135.002 112.815C136.184 112.646 137.396 112.687 138.558 112.935C139.72 113.183 140.807 113.632 141.75 114.254ZM136.773 132.281C144.082 130.442 142.135 113.801 132.722 118.49C128.093 120.79 128.121 134.456 136.768 132.281H136.773Z" fill="#D8E9FF"/>
<path d="M131.644 123.315C132.441 117.4 140.727 117.528 139.101 127.081C138.265 131.997 130.319 133.152 131.644 123.315Z" fill="#BDCEE0"/>
<path d="M178.573 113.307C179.87 115.086 180.444 122.317 180.064 124.95C174.319 125.73 176.366 125.205 175.645 126.497C176.453 127.306 175.736 127.172 179.916 126.929C179.733 130.169 179.143 133.384 178.155 136.52C177.534 138.168 176.607 139.725 175.41 141.132C171.787 138.746 172.55 139.035 171.176 139.16C170.937 140.006 170.279 140.361 174.092 142.694C171.009 146.262 167.174 149.327 162.775 151.738L159.94 148.834C158.35 148.834 158.68 148.627 158.342 149.706C158.657 150.866 159.759 151.567 160.534 152.455C158.783 153.739 149.301 154.831 146.742 154.096C146.202 150.548 146.602 151.239 145.001 150.714C143.976 151.746 144.779 152.904 144.466 153.961C141.788 153.974 135.002 151.754 129.8 148.503C131.783 146.685 133.187 145.901 131.49 144.903C129.741 145.066 129.152 146.416 128.13 147.279C124.298 144.496 121.45 140.886 119.893 136.842C122.742 135.195 122.268 135.786 122.268 134.13C118.768 132.651 119.737 140.435 117.407 126.474C120.565 126.07 120.013 126.456 120.132 124.899C119.263 124.277 118.376 124.701 117.42 124.591C117.566 121.158 118.171 117.748 119.222 114.427L121.852 115.141C123.158 114.869 122.849 115.169 123.203 113.689C122.169 113.267 121.1 112.907 120.005 112.611C120.82 109.364 125.801 104.212 129.297 101.58C130.103 102.315 130.96 103.01 131.861 103.663C132.384 103.954 132.85 104.218 133.036 103.784C133.222 103.35 133.255 102.765 130.658 100.761C135.45 97.2172 141.574 95.1937 147.962 95.043C148.214 99.5614 147.991 99.8148 149.03 100.18C150.667 99.6419 150.374 100.619 149.769 94.9189C155.708 95.0509 161.347 95.872 166.381 98.7747C162.865 102.612 162.931 102.139 163.558 103.442C164.996 103.552 164.15 104.067 168.283 100.018C172.603 102.778 175.008 105.912 177.658 110.628C178.092 111.4 178.595 111.275 174.067 113.109C172.896 113.582 172.595 114.256 173.457 114.815C174.319 115.375 176.936 113.857 178.573 113.307ZM160.983 132.271C162.886 126.559 163.054 117.723 158.389 112.17C152.782 105.496 148.4 107.695 138.24 110.004C134.958 110.75 129.867 112.239 127.96 114.599C124.156 119.303 122.972 124.103 125.09 131.425C126.616 136.705 131.901 137.721 136.348 139.322C140.681 140.881 148.021 143.317 152.388 141.83C154.625 141.069 159.172 137.701 160.983 132.271Z" fill="#D8E9FF"/>
<path d="M152.731 109.639C154.399 110.304 155.768 111.4 156.638 112.766L145.994 115.406C145.023 114.539 144.093 113.716 143.17 112.89C140.606 110.597 135.028 112.272 146.621 109.716C149.078 109.173 150.097 108.58 152.731 109.639Z" fill="#BDCEE0"/>
<path d="M157.528 114.015C159.024 115.994 159.891 118.26 160.048 120.599C156.123 120.959 152.196 121.303 148.271 121.674C147.989 121.701 148.056 121.674 146.803 116.758L157.528 114.015Z" fill="#BDCEE0"/>
<path d="M154.822 138.088C151.33 141.784 146.969 141.809 138.18 138.282C140.32 137.806 142.294 136.908 143.935 135.663L154.822 138.088Z" fill="#BDCEE0"/>
<path d="M159.437 131.344C158.766 133.343 157.656 135.22 156.164 136.879C152.417 136.105 148.706 135.338 144.86 134.546C145.918 133.013 146.704 131.36 147.194 129.637C151.303 129.949 155.249 130.838 159.437 131.344Z" fill="#BDCEE0"/>
<path d="M160.293 121.989C160.354 124.639 160.148 127.288 159.676 129.909C155.628 129.39 151.616 128.873 147.444 128.333C147.676 126.592 147.917 124.795 148.142 123.03C152.239 122.673 156.225 122.333 160.293 121.989Z" fill="#BDCEE0"/>
<path d="M179.475 106.522C184.465 114.16 185.443 126.129 181.627 137.114C179.764 142.504 176.049 147.316 170.945 150.948C166.597 154.157 161.335 156.372 155.667 157.38C138.212 160.106 118.923 149.929 114.85 132.564C113.408 127.015 113.456 121.267 114.99 115.736C117.587 107.519 122.441 101.399 130.707 96.9071C133.35 95.5267 136.154 94.3767 139.076 93.4751C144.96 91.7559 151.3 91.4545 157.378 92.6052C171.306 94.968 178.3 104.725 179.475 106.522ZM181.647 125.337C181.915 120.315 181.088 115.293 179.206 110.519C175.761 103.408 172.693 101.136 166.696 97.6265C162.102 95.1615 156.763 93.8476 151.308 93.8394C144.027 93.4924 136.834 95.3062 130.99 98.9624C127.236 101.136 124.04 103.919 121.591 107.146C119.426 110.141 117.909 113.432 117.11 116.868C115.568 121.945 115.46 127.253 116.795 132.37C121.005 152.671 147.448 161.264 164.96 152.277C171.392 148.702 176.396 143.592 179.326 137.608C180.758 133.625 181.539 129.497 181.647 125.337Z" fill="#BDCEE0"/>
<path d="M82.9532 94.0661C96.3911 94.0186 94.9406 104.144 91.7339 107.737C87.6231 112.343 88.6343 114.242 88.3901 120.789C87.2672 150.937 91.1858 153.932 81.4727 152.011C78.2534 151.374 78.5747 148.329 78.6377 144.777C78.8189 135.504 80.0867 120.652 78.2251 111.555C77.5069 108.045 74.1805 107.385 73.9584 102.534C73.6245 95.0614 77.7715 94.7129 82.9532 94.0661Z" fill="#BDCEE0"/>
<path d="M257.332 215.474C257.332 217.219 257.174 224.318 255.856 226.952C252.84 227.9 249.707 228.565 246.515 228.932C247.361 225.082 246.951 221.213 247.027 217.323L257.332 215.474Z" fill="#BDCEE0"/>
<path d="M218.009 221.757C218.236 225.803 219.194 229.817 218.236 233.884C214.432 234.927 210.882 236.362 206.991 236.894C207.217 232.585 206.676 228.326 206.401 224.013L218.009 221.757Z" fill="#BDCEE0"/>
<path d="M122.346 222.904C117.345 228.408 117.539 228.639 116.41 229.275C113.54 230.893 110.532 232.331 107.41 233.579C107.979 232.391 115.016 222.491 115.041 222.452C117.468 222.601 119.802 222.745 122.346 222.904Z" fill="#BDCEE0"/>
<path d="M112.731 222.368C112.695 222.427 104.541 234.405 103.481 234.758C101.462 234.719 74.6967 234.152 72.6634 233.361C71.7278 232.998 71.2458 233.7 71.2458 220.614C93.1887 221.74 104.248 222.368 112.731 222.368Z" fill="#D8E9FF"/>
<path d="M245.014 217.644C245.014 227.138 245.147 227.332 243.939 229.138C236.197 229.221 228.488 229.3 220.706 229.383C220.512 226.802 220.323 224.205 220.12 221.455C222.139 221.026 239.508 218.525 245.014 217.644Z" fill="#D8E9FF"/>
<path d="M204.414 224.479C204.414 239.736 207.955 236.887 194.435 237.467C189.261 237.686 194.81 237.834 182.741 237.452C173.152 237.15 176.828 239.564 164.56 224.438C172.355 224.438 166.11 224.411 184.495 224.88C199.374 225.261 191.142 224.479 204.414 224.479Z" fill="#D8E9FF"/>
<path d="M278.578 67.7017C278.682 69.5748 279.92 187.139 278.219 199.867C276.222 214.82 271.423 210.439 212.3 220.94C212.615 220.242 217.085 218.257 218.674 212.522C221.667 201.74 218.811 52.0901 216.287 42.7511C215.568 40.0913 216.156 36.4877 212.297 31.3463C209.62 27.7704 205.709 27.0365 209.213 27.5262C228.362 30.2019 264.685 38.7832 271.604 42.4092C276.305 44.8763 277.524 48.6488 278.578 67.7017Z" fill="#D8E9FF"/>
<path d="M214.213 43.3946C217.032 59.4155 217.993 199.551 217.771 202.911C217.171 212.073 216.24 215.161 210.651 218.838C203.642 223.449 195.016 222.63 176.585 222.425C163.761 222.281 109.558 221.271 66.3239 218.262C41.0782 216.503 49.1249 211.266 48.6177 116.894C48.2586 49.6646 42.9351 38.6347 58.7387 35.8284C66.7397 34.4081 73.7799 34.0504 83.6615 33.4036C93.2422 32.7766 181.667 26.7429 187.315 26.3733C203.187 25.341 211.207 26.2954 214.213 43.3946ZM202.634 180.045C202.476 166.54 201.418 61.175 196.491 47.5553C194.263 41.3922 187.789 41.3843 180.125 41.5203C157.058 41.9308 80.4626 44.6553 67.2248 46.3396C65.045 46.6168 62.2525 47.3137 61.2398 49.1723C59.2553 52.8274 59.8223 54.3308 59.5577 64.9199C58.7072 98.5944 59.9089 59.0261 61.5768 172.268C61.8619 191.532 60.8003 199.866 64.6685 203.496C67.1334 205.809 71.4993 206.004 79.8185 206.561C82.8692 206.764 87.169 207.241 91.286 207.525C114.639 209.131 162.939 210.492 176.193 210.544C208.66 210.669 202.911 204.919 202.634 180.045Z" fill="#D8E9FF"/>
<path d="M197.646 80.9788C200.764 127.785 201.034 199.477 200.914 200.665C200.599 203.85 199.115 204.775 196.884 206.341C193.934 208.401 186.982 208.525 183.997 208.656C168.349 209.344 107.17 207.474 78.1207 204.838C64.3033 203.584 64.5505 204.427 63.9032 186.991C63.6685 180.655 64.1001 127.308 62.8401 105.65C61.5486 83.4314 61.0335 82.8308 61.7234 59.6001C62.073 47.8363 61.4919 48.3933 81.8188 47.1499C139.057 43.6453 164.435 44.0413 179.124 43.3562C197.481 42.4929 195.277 45.4286 197.646 80.9788ZM175.377 149.685C183.622 142.126 186.263 129.325 185.572 120.467C183.151 89.4466 139.779 80.4706 119.957 103.787C117.734 106.542 115.935 109.522 114.602 112.655C110.941 120.661 111.734 135.563 118.056 143.469C119.975 146.154 122.375 148.575 125.172 150.648C127.308 151.978 127.85 152.729 128.94 153.229C129.513 153.493 140.262 159.449 150.429 158.905C154.792 158.82 159.11 158.143 163.215 156.901C167.851 155.272 172.003 152.808 175.377 149.685ZM92.7918 109.6C96.6915 105.395 95.6473 100.998 95.641 99.4364C95.6032 89.8255 70.378 89.2829 71.7561 101.562C73.0161 112.845 76.4811 103.959 77.0119 123.357C77.6844 148.094 71.9168 153.333 84.1482 154.49C92.4012 155.268 90.2025 147.306 90.0876 141.506C89.8293 128.373 90.779 120.497 90.7018 117.039C90.6183 113.29 91.6799 110.8 92.7918 109.6Z" fill="#D8E9FF"/>
<path d="M278.042 228.235C273.574 227.735 267.805 228.457 257.332 228.457C259.133 225.033 258.197 227.824 259.459 215.283C283.022 212.485 280.589 207.452 281.368 175.394C281.368 175.36 281.307 74.5065 279.967 58.1504C279.464 51.9702 279.156 48.5844 277.122 44.8461C275.009 40.9495 269.929 39.2467 262.889 37.2799C250.802 33.9007 212.565 23.5889 192.931 24.5696C192.901 24.5696 137.491 28.0967 102.385 30.3327C86.1189 31.365 64.25 33.2367 60.648 33.7555C54.2251 34.7164 48.0307 36.2265 46.5785 44.9464C44.4806 57.5115 47.0983 84.891 45.717 143.73C45.717 143.768 45.2839 196.092 45.9564 205.309C46.0806 207.254 46.5614 209.17 47.3818 210.992C50.1616 217.039 53.8015 219.44 63.872 220.124C65.2202 220.217 67.3181 220.451 69.301 220.572C69.301 226.097 69.2601 223.813 69.4585 229.324C22.6165 229.324 8.75331 228.339 7.88391 229.901C8.42886 230.653 5.70726 230.979 43.1954 230.546C57.52 230.381 62.0954 231.238 69.5121 230.792C69.5121 233.994 69.7625 235.173 76.198 235.694C79.9165 235.995 97.5392 236.517 97.5849 236.517C108.043 236.309 100.555 238.572 112.198 233.47C119.192 230.402 109.435 230.937 166.866 230.937C175.903 241.497 169.868 239.253 204.219 239.353C205.891 239.353 213.472 237.397 217.422 236.171C219.49 235.525 220.002 235.207 220.455 233.011C220.917 230.775 219.858 231.144 223.346 231.144C256.263 231.161 249.38 229.91 253.113 229.867C309.813 229.193 305.894 231.683 307.135 229.42C305.491 228.107 286.649 229.203 278.042 228.235ZM66.3243 218.262C41.0786 216.504 49.1253 211.266 48.6181 116.894C48.259 49.8067 42.9103 38.6408 58.7391 35.8292C66.7401 34.4102 73.7803 34.0512 83.6619 33.4044C93.2426 32.7761 181.668 26.7437 187.316 26.3741C203.187 25.3379 211.204 26.2975 214.214 43.4021C217.033 59.4229 217.994 199.558 217.772 202.919C217.173 212.082 216.241 215.17 210.651 218.846C203.644 223.458 195.016 222.638 176.585 222.432C163.762 222.286 109.558 221.272 66.3243 218.262ZM103.482 234.762C101.461 234.723 74.6954 234.158 72.6637 233.366C71.7281 233.004 71.2462 233.705 71.2462 220.619C93.1922 221.745 104.253 222.373 112.736 222.373C112.695 222.428 104.54 234.406 103.477 234.758L103.482 234.762ZM116.409 229.279C113.539 230.897 110.531 232.336 107.41 233.584C107.98 232.396 115.015 222.496 115.041 222.456C117.468 222.604 119.802 222.749 122.345 222.909C117.345 228.408 117.539 228.639 116.409 229.282V229.279ZM120.054 229.3C118.794 229.273 118.438 230.067 124.591 222.905C168.605 225.859 159.544 221.437 165.554 229.313C116.359 229.309 135.164 229.649 120.054 229.296V229.3ZM194.435 237.471C189.261 237.69 194.808 237.838 182.74 237.457C173.152 237.153 176.828 239.569 164.56 224.443C172.355 224.443 166.112 224.415 184.495 224.885C199.372 225.265 191.141 224.489 204.414 224.489C204.414 239.736 207.955 236.893 194.435 237.466V237.471ZM218.236 233.885C214.431 234.927 210.883 236.362 206.991 236.894C207.217 232.586 206.676 228.326 206.402 224.014L218.009 221.758C218.236 225.8 219.192 229.81 218.236 233.881V233.885ZM212.3 220.949C212.615 220.252 217.082 218.264 218.674 212.53C221.659 201.747 218.819 52.0982 216.286 42.7592C215.57 40.0994 216.156 36.4958 212.297 31.3544C209.619 27.7785 205.709 27.0433 209.213 27.5343C227.53 30.0885 264.496 38.691 271.604 42.4173C276.306 44.8805 277.518 48.657 278.578 67.7099C278.682 69.5829 279.918 187.147 278.219 199.875C276.22 214.82 271.421 210.44 212.3 220.942V220.949ZM243.939 229.143C243.939 229.143 228.488 229.308 220.706 229.389C220.512 226.808 220.323 224.21 220.12 221.461C222.141 221.032 239.507 218.53 245.014 217.65C245.014 227.137 245.147 227.329 243.939 229.137V229.143ZM255.857 226.957C252.84 227.905 249.707 228.569 246.515 228.937C247.361 225.088 246.952 221.219 247.027 217.329L257.332 215.481C257.332 217.218 257.18 224.315 255.857 226.951V226.957Z" fill="#000001"/>
<path d="M197.909 208.052C205.479 204.318 202.808 195.4 202.634 180.047C202.485 166.542 201.422 61.1769 196.492 47.5572C194.265 41.3941 187.788 41.3875 180.126 41.5221C157.059 41.9366 80.4631 44.6519 67.2253 46.3415C65.0455 46.6173 62.2546 47.3156 61.2403 49.1742C59.2573 52.8293 59.8228 54.3327 59.5582 64.9218C58.7092 98.5963 59.9125 59.028 61.5773 172.269C61.8624 191.541 60.8024 199.867 64.669 203.498C67.1339 205.809 71.4998 206.006 79.819 206.563C82.8682 206.766 87.1679 207.243 91.2865 207.527C114.639 209.133 162.94 210.494 176.193 210.545C187.336 210.59 193.989 209.983 197.909 208.052ZM78.1195 204.831C64.3021 203.577 64.5493 204.419 63.902 186.983C63.6673 180.647 64.0957 127.301 62.8389 105.642C61.5442 83.4242 61.0339 82.8236 61.7222 59.5929C62.0719 47.8304 61.4907 48.3861 81.8176 47.1427C138.705 43.6592 164.737 44.0169 179.123 43.349C197.479 42.4884 195.274 45.428 197.645 80.9783C200.762 127.784 201.034 199.476 200.913 200.664C200.598 203.849 199.116 204.776 196.882 206.34C193.934 208.403 186.98 208.523 183.996 208.655C168.35 209.335 107.17 207.466 78.1195 204.831Z" fill="#000001"/>
<path d="M166.696 97.6246C162.102 95.1588 156.763 93.8448 151.308 93.8375C144.027 93.4898 136.833 95.3037 130.99 98.9605C127.232 101.131 124.035 103.914 121.591 107.144C119.412 110.133 117.894 113.426 117.11 116.866C115.558 121.942 115.45 127.252 116.795 132.368C121.003 152.669 147.448 161.262 164.96 152.275C171.392 148.7 176.396 143.59 179.326 137.606C180.758 133.624 181.54 129.497 181.65 125.338C181.918 120.315 181.091 115.294 179.209 110.52C175.755 103.408 172.693 101.134 166.696 97.6246ZM180.064 124.949C174.319 125.729 176.366 125.206 175.645 126.496C176.453 127.305 175.736 127.169 179.916 126.927C179.733 130.167 179.143 133.382 178.155 136.518C177.533 138.167 176.607 139.723 175.41 141.13C171.788 138.743 172.55 139.033 171.176 139.158C170.937 140.005 170.279 140.361 174.092 142.692C171.009 146.26 167.174 149.325 162.775 151.737L159.94 148.833C158.35 148.833 158.68 148.625 158.342 149.704C158.657 150.864 159.759 151.566 160.534 152.453C158.783 153.739 149.301 154.829 146.742 154.094C146.202 150.547 146.602 151.238 145.002 150.712C143.976 151.746 144.779 152.902 144.466 153.96C141.789 153.974 135.002 151.753 129.8 148.501C131.783 146.684 133.187 145.9 131.49 144.902C129.741 145.064 129.152 146.414 128.13 147.278C124.298 144.495 121.45 140.885 119.893 136.84C122.742 135.193 122.268 135.784 122.268 134.128C118.768 132.649 119.737 140.434 117.408 126.472C120.565 126.068 120.013 126.455 120.132 124.897C119.263 124.274 118.376 124.699 117.42 124.59C117.566 121.156 118.17 117.747 119.222 114.426L121.852 115.14C123.158 114.866 122.849 115.169 123.204 113.688C122.169 113.266 121.1 112.906 120.005 112.609C120.821 109.362 125.801 104.21 129.297 101.578C130.104 102.312 130.96 103.008 131.861 103.661C132.386 103.951 132.85 104.218 133.036 103.782C133.222 103.347 133.255 102.763 130.658 100.76C135.45 97.2155 141.574 95.192 147.963 95.0414C148.215 99.5597 147.992 99.8119 149.03 100.179C150.667 99.6389 150.374 100.617 149.769 94.9173C155.708 95.0493 161.348 95.8703 166.381 98.773C162.865 102.61 162.931 102.138 163.558 103.441C164.996 103.55 164.152 104.065 168.283 100.016C172.603 102.777 174.999 105.914 177.658 110.627C178.091 111.4 178.593 111.272 174.067 113.107C172.896 113.581 172.591 114.254 173.457 114.814C174.323 115.373 176.922 113.849 178.565 113.3C179.864 115.084 180.444 122.315 180.064 124.949Z" fill="#000001"/>
<path d="M138.24 110.003C134.958 110.751 129.867 112.24 127.96 114.598C124.158 119.304 122.972 124.102 125.09 131.424C126.615 136.704 131.899 137.722 136.348 139.322C140.68 140.884 148.022 143.319 152.388 141.83C154.626 141.07 159.172 137.701 160.983 132.271C162.887 126.559 163.056 117.721 158.389 112.17C152.783 105.496 148.402 107.696 138.24 110.003ZM160.05 120.599C156.123 120.963 152.198 121.322 148.274 121.674C147.994 121.701 148.058 121.674 146.806 116.758C150.337 115.852 153.938 114.934 157.527 114.015C159.024 115.993 159.893 118.26 160.05 120.599ZM146.62 109.717C149.077 109.174 150.104 108.566 152.73 109.64C154.401 110.302 155.772 111.399 156.637 112.768C153.067 113.648 149.519 114.528 145.994 115.408C145.022 114.54 144.094 113.718 143.17 112.892C140.605 110.597 135.028 112.28 146.62 109.717ZM129.768 134.682C125.816 132.306 123.613 123.066 129.207 116.046C129.847 115.195 130.693 114.466 131.691 113.907C132.69 113.348 133.817 112.972 135 112.803C136.184 112.634 137.396 112.676 138.559 112.926C139.722 113.176 140.809 113.628 141.749 114.254C151.104 120.884 144.373 143.481 129.76 134.682H129.768ZM138.194 138.282C140.334 137.806 142.307 136.908 143.949 135.663L154.836 138.088C151.336 141.781 146.975 141.809 138.186 138.282H138.194ZM156.163 136.881C152.416 136.108 148.706 135.341 144.86 134.549C145.917 133.016 146.704 131.362 147.194 129.64C151.303 129.951 155.248 130.838 159.436 131.347C158.766 133.346 157.656 135.223 156.163 136.881ZM159.676 129.906C155.628 129.388 151.616 128.872 147.444 128.33C147.676 126.589 147.917 124.793 148.142 123.028C152.237 122.675 156.225 122.336 160.293 121.992C160.354 124.639 160.147 127.286 159.676 129.904V129.906Z" fill="#000001"/>
<path d="M185.572 120.469C183.156 89.4493 139.778 80.4733 119.958 103.79C117.734 106.545 115.935 109.524 114.603 112.658C110.938 120.663 111.733 135.567 118.057 143.472C119.975 146.157 122.375 148.578 125.173 150.651C127.307 151.98 127.85 152.734 128.94 153.232C129.512 153.496 140.264 159.454 150.429 158.908C154.79 158.807 159.105 158.131 163.215 156.904C167.835 155.252 171.982 152.794 175.38 149.694C183.602 142.113 186.265 129.328 185.572 120.469ZM181.635 137.114C179.851 142.123 176.504 146.642 171.94 150.205C167.376 153.768 161.76 156.245 155.672 157.38C137.875 160.16 118.502 149.414 114.855 132.564C113.37 127.019 113.418 121.263 114.995 115.736C117.529 107.73 122.397 101.378 130.712 96.9073C133.351 95.5209 136.156 94.3706 139.081 93.4753C144.965 91.7561 151.305 91.4547 157.383 92.6054C171.304 94.9814 178.3 104.735 179.475 106.531C184.462 114.161 185.505 126.145 181.627 137.114H181.635Z" fill="#000001"/>
<path d="M132.717 118.488C128.091 120.789 128.12 134.46 136.768 132.28C144.078 130.441 142.128 113.8 132.717 118.488ZM139.102 127.08C138.264 131.996 130.318 133.152 131.645 123.314C132.44 117.399 140.726 117.527 139.102 127.08Z" fill="#000001"/>
<path d="M71.7562 101.558C73.0162 112.842 76.4812 103.955 77.0119 123.354C77.6845 148.091 71.9168 153.331 84.1483 154.486C92.4013 155.266 90.2026 147.303 90.0876 141.503C89.8324 128.37 90.7806 120.494 90.7018 117.035C90.6199 113.29 91.6799 110.8 92.7919 109.601C96.6916 105.395 95.6442 100.999 95.641 99.437C95.5906 89.8195 70.3749 89.277 71.7562 101.558ZM91.7335 107.739C87.6227 112.344 88.6323 114.242 88.3897 120.791C87.2652 150.938 91.1838 153.937 81.4723 152.013C78.253 151.376 78.5743 148.328 78.6373 144.778C78.8185 135.505 80.0879 120.652 78.2247 111.556C77.5081 108.046 74.1801 107.386 73.958 102.535C73.6162 95.0625 77.7632 94.7141 82.945 94.0673C96.3892 94.0197 94.9402 104.145 91.7335 107.739Z" fill="#000001"/>
</svg>
